<svg xmlns="http://www.w3.org/2000/svg" width="200" height="40" viewBox="0,0,200,40"><path fill="#333" d="M57.50 22.18L57.40 22.09L57.51 22.20Q58.29 22.18 59.70 22.02L59.60 21.93L59.65 21.98Q59.59 22.60 59.59 23.25L59.75 23.41L59.68 24.59L59.73 24.65Q58.89 24.64 58.05 24.71L57.99 24.66L58.00 24.66Q57.21 24.75 56.37 24.71L56.30 24.64L56.38 24.72Q53.40 30.76 49.97 35.37L49.94 35.33L50.06 35.45Q47.51 36.07 46.22 36.68L46.21 36.66L46.14 36.60Q50.31 30.95 53.36 24.67L53.47 24.78L50.65 24.59L50.84 24.78Q50.66 23.26 50.55 21.93L50.71 22.09L50.55 21.93Q52.56 22.19 54.62 22.19L54.67 22.25L56.50 18.48L56.41 18.39Q57.55 16.64 58.76 15.04L58.70 14.97L58.65 14.92Q57.06 15.05 55.46 15.05L55.54 15.12L55.55 15.14Q49.42 15.09 45.65 12.88L45.61 12.84L45.01 11.18L45.01 11.18Q44.65 10.33 44.27 9.45L44.26 9.44L44.32 9.50Q48.56 12.02 54.27 12.25L54.27 12.26L54.33 12.31Q59.58 12.66 64.72 10.68L64.72 10.67L64.73 10.69Q64.49 11.06 64.00 11.93L63.93 11.86L63.87 11.81Q60.38 16.69 57.53 22.21ZM65.58 13.29L65.58 13.28L66.52 11.22L66.47 11.16Q65.59 11.74 63.92 12.46L63.91 12.45L64.13 12.18L64.04 12.09Q64.23 12.01 64.34 11.89L64.26 11.81L64.38 11.93Q64.74 11.23 65.47 9.90L65.54 9.97L65.43 9.87Q60.09 12.14 54.35 11.91L54.31 11.88L54.44 12.00Q48.26 11.57 43.50 8.60L43.60 8.70L43.57 8.67Q44.56 10.51 45.40 13.17L45.55 13.32L45.49 13.26Q46.59 13.90 47.39 14.21L47.27 14.09L47.30 14.12Q47.41 14.42 47.87 16.29L47.94 16.35L47.93 16.34Q51.13 17.65 56.65 17.49L56.71 17.55L56.67 17.51Q56.36 18.07 54.38 21.84L54.28 21.74L54.31 21.77Q52.31 21.83 50.33 21.64L50.32 21.63L50.27 21.58Q50.42 22.49 50.42 23.36L50.31 23.25L50.35 25.01L52.01 24.99L52.12 26.51L52.16 26.56Q48.09 33.78 45.31 37.36L45.42 37.48L45.29 37.35Q46.93 36.63 48.57 36.13L48.61 36.18L48.69 36.25Q48.02 37.19 46.65 38.90L46.62 38.86L46.51 38.75Q49.70 37.68 52.13 37.45L52.20 37.52L52.10 37.42Q55.15 33.77 58.27 26.99L58.19 26.91L61.61 27.09L61.57 27.05Q61.66 26.30 61.66 25.39L61.54 25.27L61.57 23.52L61.62 23.56Q61.21 23.42 60.66 23.46L60.67 23.47L60.84 23.64Q60.24 23.63 59.98 23.63L59.99 23.65L59.99 23.65Q59.86 23.40 59.90 23.25L59.90 23.25L60.04 23.13L60.05 23.14Q62.51 17.95 65.60 13.30Z"/><path fill="#444" d="M17.25 9.29L17.34 9.38L17.27 9.30Q21.16 11.94 25.92 12.17L25.91 12.16L25.85 12.10Q30.52 12.31 34.78 10.56L34.66 10.44L34.75 10.53Q34.38 10.96 33.62 13.74L33.72 13.85L33.67 13.79Q30.96 14.85 27.99 15.00L27.93 14.94L28.03 15.05Q24.95 15.09 22.06 14.36L22.20 14.50L22.04 14.34Q22.82 18.06 23.02 21.72L23.02 21.72L23.06 21.76Q24.94 21.86 26.54 21.82L26.56 21.84L26.65 21.92Q27.85 21.91 30.25 21.80L30.23 21.77L30.15 21.69Q30.20 22.43 30.20 23.12L30.26 23.17L30.18 24.42L30.12 24.36Q27.77 24.41 22.97 24.49L22.94 24.46L22.93 24.45Q23.05 28.68 22.48 32.67L22.35 32.55L22.48 32.68Q25.03 31.95 27.77 32.07L27.73 32.03L27.85 32.15Q30.49 32.16 33.08 33.00L33.20 33.12L33.05 32.97Q33.18 33.82 33.45 34.59L33.35 34.48L33.97 36.18L33.90 36.11Q30.63 34.74 27.20 34.74L27.22 34.75L27.28 34.81Q22.43 34.83 18.16 37.08L18.24 37.15L18.05 36.97Q20.43 30.21 20.16 23.09L20.26 23.18L20.15 23.07Q19.96 16.00 17.30 9.33ZM17.72 37.85L17.69 37.83L17.66 37.80Q18.87 37.03 19.63 36.68L19.75 36.79L19.70 36.75Q19.45 37.45 18.88 38.97L18.96 39.05L18.90 38.99Q23.46 37.05 28.53 37.32L28.49 37.28L28.56 37.34Q33.58 37.49 37.58 40.20L37.68 40.30L37.60 40.22Q36.47 37.72 35.79 35.78L35.83 35.82L35.88 35.88Q34.86 35.24 33.87 34.90L33.85 34.87L33.86 34.89Q33.43 33.46 33.28 32.66L33.20 32.58L33.31 32.70Q30.18 31.66 27.02 31.66L27.02 31.66L27.12 31.76Q25.89 31.67 24.75 31.79L24.85 31.88L24.74 31.78Q24.88 30.55 24.92 29.33L24.93 29.34L24.96 26.78L25.02 26.84Q26.89 26.80 28.67 26.84L28.57 26.73L28.61 26.78Q30.41 26.79 32.20 26.94L32.15 26.89L32.20 26.94Q32.08 25.94 32.08 24.99L32.11 25.02L32.17 23.18L31.29 23.18L31.44 23.33Q30.89 23.27 30.43 23.27L30.47 23.30L30.43 23.27Q30.45 22.60 30.60 21.30L30.67 21.38L30.58 21.29Q29.00 21.54 27.82 21.57L27.90 21.65L27.88 21.63Q26.87 21.57 25.04 21.49L25.14 21.59L25.07 21.52Q24.91 20.04 24.72 17.22L24.73 17.23L24.74 17.23Q25.81 17.39 26.80 17.39L26.91 17.50L26.73 17.32Q31.55 17.42 35.25 15.52L35.24 15.51L35.31 15.58Q35.74 13.08 36.61 10.87L36.74 11.00L36.71 10.97Q35.26 11.69 34.42 12.03L34.43 12.04L34.56 12.17Q34.79 11.33 35.25 9.77L35.25 9.78L35.34 9.86Q30.57 11.87 25.70 11.57L25.72 11.59L25.74 11.61Q20.41 11.27 16.57 8.41L16.59 8.44L16.53 8.38Q19.48 15.40 19.78 23.01L19.83 23.06L19.72 22.95Q20.21 31.05 17.70 37.83Z"/><path fill="#444" d="M120.88 18.07L120.80 17.99L120.92 18.11Q119.07 20.79 116.40 26.42L116.43 26.45L114.48 30.74L114.33 30.59Q113.50 32.54 112.17 34.78L112.28 34.90L112.27 34.89Q112.74 34.90 111.07 34.94L110.99 34.87L110.97 34.84Q110.91 34.78 109.65 34.78L109.64 34.77L109.74 34.87Q109.03 33.40 106.10 26.24L106.02 26.16L106.11 26.26Q103.85 20.79 101.75 17.79L101.78 17.82L101.81 17.84Q102.57 20.93 102.57 24.09L102.63 24.14L102.64 24.16Q102.58 30.60 99.61 36.16L99.60 36.15L99.49 36.05Q98.20 36.43 95.84 37.15L95.94 37.25L95.99 37.30Q99.59 31.54 99.59 24.30L99.65 24.36L99.62 24.33Q99.55 15.31 94.14 8.34L94.17 8.37L94.18 8.39Q95.82 9.11 98.18 9.79L98.09 9.71L98.13 9.74Q105.23 16.54 111.32 29.86L111.29 29.84L111.38 29.93Q114.83 22.87 117.04 19.36L117.03 19.36L117.03 19.36Q120.62 13.58 124.58 10.12L124.57 10.11L124.53 10.07Q125.81 9.86 128.17 9.10L128.22 9.15L128.23 9.16Q123.23 15.77 123.23 24.37L123.24 24.38L123.18 24.32Q123.14 30.95 126.56 36.47L126.59 36.49L126.56 36.47Q125.21 36.14 122.47 35.53L122.45 35.52L122.47 35.53Q120.09 30.72 120.09 24.74L120.10 24.75L120.12 24.77Q120.25 21.47 120.94 18.12ZM122.41 36.05L122.40 36.04L122.44 36.07Q123.14 36.20 124.58 36.47L124.42 36.31L124.49 36.37Q124.86 37.05 125.81 38.53L125.81 38.53L125.82 38.54Q128.07 39.08 131.54 40.30L131.40 40.16L131.49 40.25Q125.15 33.84 125.15 24.01L125.13 23.99L125.24 24.10Q125.25 16.38 129.63 10.25L129.65 10.28L127.43 10.95L127.36 10.88Q128.47 9.44 129.12 8.57L129.14 8.59L129.05 8.50Q127.20 9.16 124.57 9.69L124.55 9.67L124.66 9.78Q117.71 15.70 111.66 28.30L111.82 28.46L111.81 28.45Q106.60 17.45 101.65 12.20L101.53 12.08L101.61 12.16Q101.15 12.00 100.58 11.89L100.62 11.93L99.53 10.77L99.37 10.60Q98.90 10.06 98.22 9.45L98.21 9.44L98.09 9.32Q95.11 8.40 93.32 7.68L93.28 7.63L93.31 7.67Q99.31 14.89 99.31 24.29L99.29 24.27L99.29 24.26Q99.26 31.85 95.11 37.72L95.13 37.74L95.18 37.78Q95.79 37.48 97.08 37.06L97.10 37.08L97.22 37.20Q97.02 37.38 95.61 39.47L95.63 39.49L95.71 39.57Q97.41 38.98 100.91 38.22L100.83 38.14L100.98 38.30Q104.72 31.26 104.53 23.49L104.46 23.42L104.50 23.46Q105.97 27.41 109.44 35.29L109.47 35.33L109.49 35.34Q109.74 35.29 109.96 35.29L109.84 35.17L110.39 35.18L110.45 35.24Q110.86 35.88 111.66 37.17L111.78 37.29L111.63 37.15Q113.32 37.20 113.32 37.20L113.31 37.19L113.29 37.16Q114.30 37.15 114.95 37.23L114.89 37.16L115.02 37.30Q116.52 33.20 119.87 25.20L119.85 25.19L119.98 25.31Q119.84 30.73 122.43 36.06Z"/><path fill="#222" d="M77.19 14.18L77.19 14.17L77.10 14.08Q78.31 18.65 78.46 21.85L78.43 21.82L78.56 21.94Q79.03 21.96 83.41 22.07L83.36 22.03L83.31 21.98Q86.00 22.15 86.38 18.69L86.19 18.50L86.31 18.61Q86.57 16.94 85.66 16.02L85.51 15.88L85.62 15.99Q84.29 15.03 82.31 14.88L82.27 14.84L82.31 14.88Q79.00 14.58 77.13 14.12ZM78.54 23.75L78.59 23.80L78.68 23.89Q78.83 29.87 77.04 35.81L76.97 35.74L77.09 35.86Q75.83 36.15 73.24 37.18L73.19 37.13L73.25 37.19Q75.89 30.51 75.55 23.05L75.67 23.16L75.59 23.09Q75.41 15.87 72.10 9.36L72.00 9.26L72.07 9.33Q76.96 12.16 83.92 12.16L83.93 12.17L83.89 12.12Q89.39 11.99 89.66 15.53L89.74 15.61L89.80 15.68Q89.84 16.24 89.76 16.85L89.73 16.82L89.57 17.88L89.68 17.99Q88.91 21.98 86.78 23.70L86.76 23.67L86.71 23.63Q85.98 24.37 84.95 24.37L84.82 24.25L82.19 24.20L82.19 24.21Q87.84 31.49 92.37 36.06L92.33 36.02L92.49 36.18Q90.27 35.40 87.34 35.06L87.20 34.92L87.25 34.98Q83.45 30.99 78.54 23.75ZM87.12 35.34L87.26 35.47L87.37 35.28L88.74 36.65L88.77 36.68Q89.36 37.24 90.01 37.85L89.96 37.79L89.84 37.68Q93.40 38.31 96.98 40.17L97.06 40.26L97.00 40.19Q90.16 33.55 84.76 26.62L84.66 26.52L86.53 26.64L86.49 26.61Q89.64 26.67 90.98 22.14L90.91 22.07L90.79 21.96Q91.64 19.91 91.64 17.21L91.60 17.17L91.66 17.23Q91.54 14.82 89.83 14.18L89.82 14.17L89.83 14.18Q89.73 13.82 89.16 13.13L89.27 13.24L89.19 13.16Q87.59 11.79 83.93 11.71L83.84 11.61L83.86 11.64Q75.90 11.41 71.22 8.40L71.35 8.53L71.20 8.37Q75.08 15.34 75.42 23.03L75.26 22.87L75.44 23.05Q75.71 30.93 72.59 37.78L72.60 37.80L72.58 37.78Q73.76 37.13 74.56 36.83L74.73 37.00L73.57 39.11L73.70 39.24Q76.44 38.21 79.10 37.72L78.99 37.60L79.04 37.65Q80.30 32.52 80.49 27.30L80.43 27.25L80.49 27.30Q84.09 32.35 87.25 35.47ZM85.86 17.40L85.87 17.42L85.91 17.46Q85.97 17.74 85.97 18.08L85.95 18.06L85.94 18.63L86.04 18.73Q86.00 19.79 85.32 20.75L85.31 20.74L85.19 20.62Q84.62 21.41 83.70 21.60L83.67 21.57L83.74 21.65Q83.59 21.76 81.99 21.80L81.88 21.69L81.98 21.79Q81.37 21.79 80.54 21.67L80.40 21.54L80.45 21.59Q80.35 20.08 80.01 17.04L80.04 17.07L80.07 17.09Q81.52 17.33 82.21 17.33L82.10 17.22L82.21 17.34Q83.94 17.24 85.88 17.43Z"/><path d="M14 35 C114 1,82 29,197 12" stroke="#333" fill="none"/><path d="M8 17 C83 23,84 5,195 31" stroke="#555" fill="none"/><path fill="#333" d="M163.51 35.35L163.46 35.29L163.59 35.42Q162.17 35.49 160.61 35.07L160.55 35.01L160.52 34.98Q159.39 34.15 159.24 32.52L159.23 32.51L159.12 32.40Q159.11 32.24 159.30 29.61L159.27 29.58L159.42 29.73Q160.25 29.34 162.27 28.96L162.30 28.99L162.18 29.82L162.22 29.86Q161.91 31.57 163.32 32.15L163.40 32.23L163.29 32.12Q164.10 32.47 166.19 32.47L166.21 32.49L166.25 32.52Q167.75 32.28 167.94 32.20L167.90 32.16L167.94 32.20Q168.90 32.09 169.62 31.60L169.57 31.55L169.57 31.54Q171.02 30.63 170.82 28.53L170.92 28.63L170.90 28.61Q170.66 26.12 168.92 24.56L168.86 24.49L168.89 24.52Q167.20 23.01 164.73 23.01L164.67 22.95L164.73 22.78L164.64 22.69Q165.14 22.77 166.02 22.70L165.90 22.58L165.98 22.66Q167.85 22.51 169.22 21.28L169.25 21.30L169.23 21.28Q170.62 20.06 170.77 18.20L170.68 18.11L170.80 18.23Q170.88 17.90 170.88 17.55L170.85 17.52L170.87 17.54Q170.94 16.08 169.57 15.17L169.57 15.18L169.53 15.13Q168.17 14.19 166.57 14.31L166.61 14.35L166.59 14.33Q165.44 14.31 164.22 14.73L164.11 14.62L164.23 14.74Q162.73 15.22 162.42 16.36L162.34 16.28L162.46 16.40Q162.23 17.12 162.30 17.88L162.21 17.79L162.19 17.77Q161.18 17.56 159.13 16.84L159.17 16.88L159.24 16.95Q158.90 15.16 158.94 14.32L158.94 14.33L159.11 14.50Q159.22 12.97 160.28 12.28L160.27 12.27L160.28 12.27Q161.67 11.65 163.27 11.65L163.14 11.52L163.14 11.52Q166.37 11.55 169.53 11.82L169.58 11.87L169.49 11.78Q174.69 12.33 174.38 16.10L174.34 16.06L174.23 15.95Q174.30 17.58 173.80 19.14L173.70 19.04L173.78 19.12Q172.88 22.21 170.52 23.13L170.53 23.14L170.42 23.03Q173.04 23.55 173.65 26.90L173.67 26.92L173.66 26.91Q173.87 28.04 173.95 30.06L173.90 30.01L173.92 30.03Q174.16 34.57 169.55 35.03L169.60 35.07L169.47 34.95Q168.72 35.00 163.43 35.27ZM168.75 37.62L168.70 37.56L168.67 37.53Q169.27 37.56 172.13 37.64L172.09 37.61L172.12 37.63Q173.85 37.69 175.48 37.04L175.53 37.08L175.64 37.20Q176.68 36.10 176.48 34.35L176.52 34.38L176.57 34.43Q176.36 33.00 176.06 31.25L176.09 31.29L176.24 31.43Q175.37 26.80 173.43 25.16L173.41 25.15L173.32 24.87L173.16 24.66L173.22 24.73Q175.05 23.36 175.81 18.98L175.84 19.01L175.72 18.89Q175.85 18.52 175.96 17.57L175.98 17.59L175.98 17.58Q176.01 16.78 175.93 16.09L175.83 15.99L175.99 16.15Q175.70 14.34 174.41 13.65L174.49 13.74L174.39 13.72L174.35 13.67Q174.10 12.74 172.96 12.21L172.92 12.16L172.89 12.13Q171.42 11.51 166.28 11.20L166.21 11.13L166.29 11.21Q164.56 11.07 162.96 11.07L162.97 11.08L162.94 11.05Q161.45 11.16 159.92 11.81L159.85 11.74L159.90 11.79Q158.66 12.52 158.66 14.27L158.72 14.33L158.68 14.30Q158.75 13.95 159.02 17.30L159.04 17.32L158.92 17.20Q159.17 17.22 160.81 17.83L160.89 17.91L160.86 17.88Q160.86 18.41 160.82 18.91L160.94 19.03L160.85 18.94Q160.75 19.34 160.79 19.87L160.85 19.93L160.92 20.00Q162.60 20.27 164.62 20.39L164.69 20.45L164.66 20.43Q164.64 18.47 165.75 17.63L165.75 17.64L165.68 17.56Q166.54 16.94 168.56 16.71L168.62 16.77L168.48 16.63Q169.64 16.66 170.22 16.85L170.31 16.94L170.26 16.89Q170.28 16.98 170.32 17.10L170.30 17.08L170.42 17.39L170.44 17.87L170.48 17.92Q170.55 18.18 170.52 18.33L170.35 18.16L170.39 18.20Q170.44 20.04 168.92 21.22L168.79 21.09L168.80 21.10Q167.89 22.02 165.87 22.21L165.87 22.21L165.94 22.28Q165.26 22.47 164.38 22.47L164.37 22.46L164.25 22.34Q164.29 22.69 164.45 23.37L164.40 23.33L164.43 23.35Q166.16 23.34 167.61 24.06L167.74 24.19L167.67 24.23L165.94 24.25L166.00 24.32Q166.00 24.62 166.12 25.23L166.22 25.34L166.13 25.25Q168.24 25.15 169.96 26.49L169.93 26.46L169.99 26.52Q170.32 27.00 170.62 28.64L170.65 28.66L170.51 28.53Q170.74 31.49 167.81 31.91L167.84 31.95L167.90 32.01Q165.62 32.09 165.05 32.05L165.22 32.21L165.19 32.18Q164.74 32.08 164.21 32.01L164.08 31.87L164.20 31.54L164.31 31.08L164.38 30.73L164.35 30.36L164.40 30.41Q163.43 30.47 162.63 30.66L162.60 30.62L162.61 30.64Q162.46 30.30 162.46 30.11L162.63 30.28L162.61 30.25Q162.66 30.08 162.66 29.85L162.65 29.84L162.69 29.88Q162.69 29.42 162.85 28.70L162.81 28.67L162.84 28.70Q160.84 28.79 158.98 29.14L158.97 29.13L158.96 29.12Q159.04 29.69 158.92 30.81L158.98 30.87L158.94 30.83Q158.73 31.86 158.73 32.47L158.92 32.65L158.78 32.51Q158.90 34.61 160.27 35.37L160.27 35.37L160.31 35.42Q161.77 37.68 166.49 37.49L166.40 37.40L166.44 37.43Q167.17 37.40 168.69 37.56Z"/><path fill="#333" d="M138.68 14.63L138.65 14.60L138.71 14.66Q136.84 14.88 135.89 15.03L135.78 14.92L135.70 14.84Q134.17 15.18 132.95 15.71L132.99 15.75L132.85 15.61Q129.34 17.05 129.22 21.73L129.24 21.74L129.32 21.83Q129.31 24.56 129.96 27.49L129.86 27.39L129.84 27.37Q130.79 31.48 134.41 32.66L134.46 32.71L134.41 32.66Q136.34 33.26 137.78 33.10L137.78 33.10L138.14 33.00L138.11 32.97Q138.25 32.93 138.44 32.96L138.61 33.13L138.60 33.12Q138.68 33.05 138.83 33.01L138.88 33.06L138.84 33.02Q141.44 32.72 142.81 32.15L142.89 32.23L139.16 28.54L139.34 28.72Q139.54 28.27 140.15 27.66L140.20 27.72L141.20 26.89L141.05 26.74Q142.96 28.88 144.94 30.93L144.85 30.84L145.02 31.02Q147.32 29.17 147.59 23.80L147.48 23.69L147.46 23.67Q147.51 22.73 147.51 21.82L147.64 21.94L147.59 21.90Q147.60 16.24 142.54 15.13L142.53 15.13L142.50 15.10Q141.15 14.74 138.64 14.59ZM151.41 36.64L151.45 36.68L151.56 36.79Q150.81 37.07 149.63 37.95L149.65 37.97L145.41 34.45L145.27 34.31Q142.78 35.52 138.52 35.55L138.49 35.52L138.52 35.55Q132.01 35.71 129.20 33.46L129.22 33.49L129.24 33.50Q127.40 31.67 126.94 28.70L127.05 28.80L126.88 28.64Q126.76 26.92 126.38 23.34L126.38 23.34L126.39 23.35Q126.42 22.65 126.30 20.90L126.20 20.80L126.34 20.94Q126.10 19.29 126.14 18.42L126.21 18.49L126.20 18.47Q126.18 15.30 127.93 13.74L127.97 13.77L128.04 13.85Q129.56 12.51 132.76 12.01L132.72 11.98L132.80 12.06Q135.22 11.62 138.11 11.70L138.06 11.65L138.06 11.64Q145.71 11.91 148.83 14.27L148.64 14.08L148.76 14.20Q150.92 16.32 150.65 21.23L150.63 21.21L150.58 21.15Q150.51 24.94 150.32 26.27L150.29 26.23L150.29 26.23Q149.60 30.68 147.27 33.00L147.19 32.92L147.38 33.10Q148.72 34.22 151.47 36.70ZM146.74 12.55L146.70 12.52L146.59 12.41Q144.57 11.69 138.06 11.19L138.11 11.24L138.04 11.16Q136.83 11.36 134.05 11.48L134.02 11.45L134.04 11.47Q129.68 11.57 127.44 13.55L127.49 13.60L127.56 13.67Q125.75 14.98 125.75 18.14L125.90 18.29L125.74 18.13Q125.72 18.95 125.88 20.67L125.97 20.76L125.91 20.70Q126.16 22.51 126.16 23.39L126.10 23.32L126.07 23.29Q126.30 25.12 126.68 28.70L126.56 28.58L126.68 28.71Q126.96 31.49 128.56 33.55L128.59 33.58L128.56 33.56Q129.01 34.50 130.23 35.64L130.12 35.53L130.14 35.56Q132.99 37.68 138.17 37.95L138.17 37.95L138.10 37.88Q138.35 37.78 140.75 37.90L140.89 38.04L140.91 38.06Q145.53 38.03 147.81 36.97L147.86 37.01L147.98 37.13Q148.86 37.83 153.58 41.41L153.60 41.42L153.54 41.36Q154.04 40.72 155.33 39.73L155.41 39.81L155.31 39.71Q154.55 39.13 153.75 38.45L153.73 38.43L152.06 36.95L152.18 36.92L152.19 36.93Q151.59 36.45 150.37 35.42L150.29 35.33L150.38 35.43Q152.36 32.99 152.36 28.46L152.26 28.36L152.28 28.38Q152.34 28.02 152.38 27.18L152.29 27.09L152.37 27.17Q152.29 26.22 152.29 25.80L152.31 25.82L152.41 25.92Q152.29 20.27 151.56 17.91L151.61 17.96L151.70 18.05Q151.28 16.72 150.41 15.65L150.28 15.53L150.29 15.54Q149.63 13.54 146.69 12.51ZM140.72 17.12L140.55 16.95L140.58 16.98Q144.70 16.95 146.53 18.55L146.55 18.57L146.62 18.65Q147.15 19.82 147.27 21.15L147.15 21.04L147.26 21.15Q147.34 22.41 147.26 23.78L147.13 23.64L147.29 23.81Q146.83 28.64 144.89 30.35L144.90 30.36L144.91 30.37Q143.68 29.15 141.17 26.41L141.21 26.44L141.21 26.44Q140.32 27.08 138.76 28.64L138.75 28.63L138.82 28.70Q139.39 29.31 140.53 30.49L140.42 30.37L140.36 30.43L140.40 30.47Q141.06 31.09 142.09 32.16L142.10 32.16L142.09 32.16Q141.02 32.34 138.70 32.65L138.64 32.59L138.23 32.71L137.69 32.59L137.68 32.62L137.72 32.66Q134.25 32.65 132.27 31.02L132.33 31.08L132.32 31.07Q131.24 28.92 131.28 25.80L131.29 25.81L131.28 25.80Q131.54 17.19 140.71 17.11Z"/></svg>