<svg xmlns="http://www.w3.org/2000/svg" width="200" height="40" viewBox="0,0,200,40"><path d="M19 35 C114 11,103 32,193 13" stroke="#888" fill="none"/><path d="M10 33 C118 11,97 32,185 13" stroke="#444" fill="none"/><path fill="#222" d="M164.71 21.81L164.72 21.82L164.65 21.75Q166.48 21.94 168.31 21.94L168.39 22.03L168.26 21.89Q170.21 22.05 172.03 21.90L171.99 21.86L171.98 21.84Q171.80 22.43 171.80 23.15L171.75 23.10L171.83 24.51L171.87 24.55Q169.47 24.51 164.71 24.62L164.73 24.65L164.65 24.57Q164.71 30.56 163.57 35.55L163.60 35.59L163.54 35.52Q161.36 36.24 159.88 37.04L159.98 37.14L159.87 37.04Q162.18 30.20 161.91 23.09L161.98 23.15L161.90 23.08Q161.68 15.97 159.02 9.31L159.06 9.35L158.96 9.25Q162.68 11.82 167.44 12.05L167.42 12.04L167.53 12.14Q172.13 12.25 176.28 10.50L176.34 10.57L176.27 10.49Q175.95 11.28 175.73 12.08L175.70 12.05L175.19 13.63L175.32 13.76Q172.53 14.79 169.56 14.94L169.57 14.94L169.70 15.07Q166.73 15.19 163.88 14.47L163.75 14.34L163.89 14.48Q164.47 17.76 164.66 21.76ZM176.87 9.76L176.88 9.77L176.85 9.74Q172.34 11.97 167.47 11.66L167.35 11.55L167.51 11.70Q162.07 11.29 158.34 8.43L158.46 8.55L158.40 8.50Q161.23 15.40 161.53 23.01L161.66 23.14L161.53 23.01Q161.86 30.95 159.35 37.73L159.35 37.73L159.34 37.72Q160.11 37.43 161.48 36.78L161.42 36.72L161.32 36.62Q161.20 37.45 160.63 38.97L160.57 38.91L160.59 38.93Q163.01 37.97 165.90 37.47L165.91 37.48L165.78 37.34Q166.42 32.51 166.61 26.79L166.71 26.89L166.70 26.89Q168.44 26.80 170.27 26.80L170.19 26.72L170.34 26.87Q172.15 26.89 173.98 27.08L173.89 26.99L173.87 26.97Q173.76 26.03 173.76 25.12L173.85 25.20L173.70 23.15L173.72 23.17Q173.06 23.38 172.22 23.38L172.19 23.35L172.10 23.26Q172.09 22.38 172.17 21.35L172.18 21.37L172.36 21.54Q170.92 21.66 169.51 21.66L169.52 21.67L169.53 21.68Q168.13 21.69 166.76 21.65L166.72 21.61L166.73 19.49L166.58 19.34Q166.57 18.27 166.46 17.20L166.50 17.24L166.45 17.19Q167.54 17.37 168.53 17.37L168.55 17.39L168.42 17.26Q173.19 17.27 176.81 15.37L176.93 15.49L176.76 15.32Q177.28 13.52 178.19 10.89L178.28 10.98L178.15 10.85Q177.04 11.87 176.24 12.21L176.17 12.14L176.12 12.09Q176.33 11.28 176.83 9.72Z"/><path fill="#111" d="M22.62 14.36L22.70 14.43L22.57 14.30Q23.57 18.69 23.72 22.27L23.68 22.23L23.56 22.11Q24.71 22.23 25.77 22.23L25.70 22.15L28.09 22.34L28.08 22.32Q28.98 22.16 29.86 20.75L29.98 20.88L29.90 20.80Q30.72 19.71 30.83 18.53L30.76 18.45L30.71 18.41Q31.15 15.46 26.93 14.97L26.95 14.99L26.90 14.94Q25.17 14.84 22.54 14.27ZM23.67 24.96L23.64 24.92L23.74 25.03Q23.68 31.25 22.54 35.66L22.49 35.62L22.49 35.62Q20.96 35.96 18.64 37.02L18.67 37.06L18.77 37.15Q21.02 30.38 20.75 23.11L20.77 23.12L20.68 23.04Q20.52 15.79 17.74 9.36L17.65 9.27L17.75 9.37Q21.88 12.13 28.13 12.13L28.05 12.06L28.05 12.05Q34.20 12.15 34.35 15.62L34.33 15.59L34.24 15.51Q34.33 17.95 33.34 20.62L33.36 20.64L33.43 20.71Q33.00 21.80 32.05 23.02L31.94 22.91L31.94 22.91Q30.74 24.64 28.18 24.90L28.14 24.86L28.13 24.85Q25.94 24.95 23.69 24.98ZM29.72 27.13L29.76 27.16L29.73 27.13Q34.00 27.48 35.26 22.69L35.21 22.64L35.27 22.71Q36.14 18.96 35.98 16.94L36.09 17.05L35.93 16.89Q35.96 15.52 35.20 14.53L35.18 14.51L35.06 14.38Q34.81 14.13 34.31 13.90L34.33 13.92L34.29 13.88Q34.26 13.70 33.65 12.94L33.69 12.97L33.67 12.95Q32.07 11.59 28.11 11.59L28.06 11.53L28.14 11.61Q21.21 11.57 16.99 8.41L16.98 8.41L16.97 8.39Q20.21 15.56 20.48 23.02L20.43 22.97L20.40 22.95Q20.80 30.73 18.13 37.81L18.02 37.70L18.02 37.70Q19.11 37.07 20.10 36.69L20.07 36.67L19.80 37.92L19.81 37.93Q19.49 38.37 19.22 38.94L19.34 39.06L19.28 38.99Q21.68 37.93 24.57 37.39L24.73 37.55L24.62 37.44Q25.54 32.01 25.62 27.29L25.66 27.32L25.56 27.23Q26.74 27.23 27.73 27.23L27.71 27.21L27.75 27.25Q29.02 27.19 29.82 27.23ZM28.82 17.24L28.74 17.16L28.75 17.17Q29.36 17.29 30.35 17.51L30.42 17.58L30.41 17.57Q30.38 17.66 30.42 17.97L30.46 18.01L30.49 18.04Q30.52 18.29 30.44 18.56L30.41 18.53L30.40 18.51Q30.38 19.83 29.66 20.71L29.56 20.60L29.61 20.66Q29.05 21.74 28.02 21.93L27.92 21.82L28.01 21.92Q27.16 21.79 25.52 21.79L25.65 21.91L25.53 21.80Q25.63 19.65 25.41 17.29L25.24 17.13L27.09 17.30L27.08 17.29Q27.98 17.36 28.86 17.28Z"/><path fill="#333" d="M139.39 25.38L139.45 25.45L139.41 25.40Q136.02 31.83 132.59 35.79L132.50 35.71L132.57 35.77Q130.60 36.08 128.16 36.96L128.23 37.03L128.25 37.05Q133.12 31.41 137.87 22.99L137.92 23.04L137.96 23.08Q133.35 16.11 127.37 9.71L127.36 9.70L127.22 9.56Q130.24 10.86 132.52 11.36L132.61 11.45L132.59 11.43Q137.26 16.67 139.70 20.63L139.63 20.56L139.53 20.46Q142.10 16.10 146.02 11.69L146.13 11.79L146.07 11.74Q147.69 11.45 150.89 10.69L150.75 10.56L150.86 10.66Q144.73 17.06 141.26 23.00L141.35 23.08L141.26 23.00Q146.36 31.59 150.74 36.16L150.80 36.22L150.84 36.26Q148.29 35.50 146.19 35.27L146.17 35.25L146.08 35.16Q143.44 32.33 139.52 25.51ZM145.99 35.49L146.05 35.55L146.02 35.52Q146.45 35.68 146.91 35.80L146.90 35.79L146.80 35.69Q147.60 36.45 149.12 38.05L149.19 38.12L149.12 38.05Q152.52 38.90 155.57 40.27L155.61 40.31L155.57 40.27Q148.36 33.59 143.26 24.84L143.22 24.80L143.30 24.88Q146.96 18.15 152.86 11.30L152.92 11.35L152.95 11.38Q151.53 12.06 149.36 12.59L149.29 12.52L149.33 12.56Q150.26 11.70 152.02 9.92L152.02 9.92L152.02 9.92Q149.61 10.78 145.91 11.35L145.93 11.37L145.83 11.27Q142.51 15.18 139.92 19.48L139.91 19.47L139.88 19.44Q138.95 17.83 137.77 16.34L137.71 16.29L135.50 13.42L135.01 13.32L135.04 13.34Q135.04 13.50 134.81 13.42L134.73 13.34L134.70 13.31Q134.03 12.48 132.54 10.92L132.47 10.85L132.59 10.97Q128.77 10.08 126.18 8.71L126.23 8.76L126.08 8.61Q132.85 15.91 137.42 22.96L137.39 22.93L137.50 23.04Q132.90 31.12 127.16 37.70L127.32 37.87L127.30 37.85Q128.49 37.06 130.63 36.49L130.60 36.46L129.33 37.93L129.41 38.02Q129.47 38.08 128.14 39.41L128.14 39.41L128.07 39.34Q131.15 38.35 134.31 37.85L134.27 37.81L134.20 37.74Q138.24 33.25 140.83 28.50L140.78 28.45L140.77 28.44Q143.42 32.77 146.12 35.62Z"/><path fill="#111" d="M55.97 15.21L55.95 15.20L55.98 15.22Q51.59 15.13 47.90 14.14L47.79 14.04L47.86 14.11Q49.35 18.64 49.54 23.48L49.51 23.45L49.55 23.48Q49.67 28.21 48.45 32.82L48.45 32.81L48.63 32.99Q51.37 32.31 54.87 32.16L54.93 32.21L54.95 32.24Q58.72 31.89 60.51 29.46L60.59 29.54L60.49 29.43Q62.09 27.46 62.28 23.35L62.36 23.43L62.38 23.44Q62.39 21.63 61.93 19.92L61.94 19.93L61.85 19.84Q60.52 15.04 55.80 15.04ZM43.89 37.05L44.02 37.18L44.01 37.17Q46.85 31.44 46.85 24.74L46.94 24.84L46.77 24.67Q46.90 16.27 42.60 9.27L42.48 9.14L42.56 9.23Q47.85 11.93 56.11 12.12L56.11 12.12L56.04 12.04Q64.93 12.26 65.27 19.41L65.36 19.50L65.25 19.39Q65.44 22.17 65.40 23.61L65.35 23.56L65.28 23.49Q65.33 28.30 64.49 30.47L64.39 30.37L64.53 30.51Q64.06 31.56 63.29 32.40L63.35 32.45L63.26 32.36Q61.97 33.96 59.34 34.46L59.24 34.36L59.19 34.31Q57.72 34.70 54.71 34.93L54.77 34.99L54.70 34.92Q48.54 35.34 43.93 37.09ZM61.82 36.93L61.92 37.04L61.87 36.98Q64.55 36.58 66.19 35.10L66.24 35.15L66.23 35.14Q67.49 33.43 67.45 30.69L67.44 30.68L67.47 30.71Q67.41 29.27 67.25 25.77L67.35 25.87L66.95 21.28L67.02 21.35Q66.83 19.07 65.88 16.97L65.71 16.81L65.71 16.80Q65.19 15.87 64.50 15.22L64.62 15.34L64.64 15.20L64.65 15.21Q62.99 12.29 58.57 11.91L58.50 11.84L58.43 11.77Q55.80 11.69 48.79 10.96L48.77 10.95L48.70 10.87Q45.48 10.47 41.79 8.46L41.72 8.38L41.77 8.43Q46.57 15.79 46.57 24.55L46.70 24.68L46.72 24.70Q46.54 31.51 43.19 37.68L43.24 37.73L43.28 37.77Q43.88 37.42 45.22 36.93L45.26 36.98L45.38 37.10Q45.03 37.93 44.16 39.41L43.99 39.25L44.07 39.32Q47.11 38.26 50.46 37.76L50.56 37.86L50.55 37.85Q52.63 37.53 56.29 37.42L56.19 37.32L56.15 37.28Q60.17 37.30 62.00 37.11ZM61.93 23.38L61.95 23.40L61.96 23.41Q61.60 31.42 54.90 31.80L54.76 31.66L54.89 31.80Q52.92 31.88 50.86 32.15L50.87 32.15L50.88 32.16Q51.67 28.39 51.67 24.73L51.51 24.57L51.68 24.74Q51.47 20.84 50.74 16.99L50.87 17.12L50.78 17.02Q53.04 17.39 57.73 17.39L57.84 17.50L57.84 17.50Q59.15 17.29 60.79 18.24L60.74 18.19L60.85 18.30Q62.15 20.59 61.99 23.44Z"/><path fill="#111" d="M79.24 35.32L79.38 35.46L79.37 35.45Q75.25 35.63 74.26 33.31L74.25 33.30L74.21 33.26Q75.03 32.37 76.59 30.58L76.55 30.53L76.50 30.49Q77.12 32.63 80.13 32.74L80.14 32.76L79.98 32.59Q83.41 32.71 85.04 31.38L85.10 31.44L85.02 31.36Q86.44 29.77 86.36 27.06L86.48 27.18L86.45 27.15Q86.24 22.03 81.44 22.26L81.54 22.36L81.53 22.34Q78.62 22.41 76.87 23.67L76.93 23.73L76.52 23.46L76.31 23.33L76.34 23.36Q76.78 20.30 76.67 17.56L76.68 17.57L76.59 17.48Q76.44 14.82 76.10 11.51L76.14 11.55L76.18 11.59Q79.70 12.41 83.51 12.29L83.64 12.42L83.67 12.46Q87.36 12.26 90.94 11.01L90.99 11.06L90.39 12.56L90.43 12.59Q90.03 13.26 89.84 14.10L89.97 14.23L89.87 14.13Q86.80 15.21 82.92 15.21L82.89 15.18L82.90 15.19Q81.54 15.27 80.05 15.12L79.91 14.97L80.08 15.15Q79.84 15.67 79.50 20.12L79.60 20.23L79.56 20.18Q80.39 19.72 82.45 19.57L82.47 19.60L82.52 19.64Q86.16 19.78 87.60 21.45L87.68 21.53L87.68 21.53Q89.09 23.09 89.36 26.94L89.27 26.85L89.30 26.88Q89.47 30.97 88.25 32.99L88.23 32.97L88.29 33.02Q86.39 35.04 83.07 35.27L83.04 35.24L82.90 35.10Q82.06 35.32 79.39 35.47ZM85.27 37.58L85.30 37.61L85.40 37.71Q88.85 37.81 90.75 36.70L90.60 36.55L90.71 36.67Q91.64 35.08 91.64 32.99L91.72 33.07L91.74 33.08Q91.77 30.03 90.82 25.92L90.73 25.84L90.70 25.81Q90.28 24.01 89.06 22.61L89.19 22.74L89.17 22.75L88.99 22.50L88.62 22.28L88.63 22.29Q88.32 21.56 87.67 20.87L87.65 20.85L87.55 20.79L87.71 20.95Q86.04 19.13 82.35 19.13L82.37 19.15L82.19 19.24L82.15 19.20Q82.27 18.67 82.46 17.57L82.40 17.51L82.40 17.51Q87.42 17.65 91.45 16.01L91.36 15.92L91.44 16.00Q91.89 14.62 92.84 11.81L92.87 11.83L90.77 12.78L90.79 12.80Q91.16 11.64 91.65 10.50L91.51 10.36L91.55 10.40Q87.75 11.89 83.64 11.96L83.68 12.01L83.71 12.04Q79.57 12.12 75.61 11.02L75.54 10.95L75.64 11.05Q76.23 15.37 76.23 19.78L76.20 19.76L76.34 19.90Q76.20 21.66 76.08 23.56L76.12 23.60L76.17 23.65Q76.33 23.73 76.90 24.03L76.91 24.04L77.06 24.19Q77.26 23.82 77.90 23.48L77.92 23.50L78.02 23.59Q77.84 24.22 77.62 25.74L77.73 25.86L77.63 25.75Q78.06 25.96 78.48 26.19L78.48 26.19L78.45 26.16Q81.41 24.58 83.27 24.58L83.18 24.49L83.22 24.53Q84.52 24.50 85.70 25.15L85.65 25.10L85.71 25.16Q86.06 26.19 86.10 27.15L85.99 27.03L86.05 27.09Q86.11 29.66 85.08 30.77L85.17 30.85L85.04 30.72Q83.78 32.06 81.54 32.29L81.50 32.25L81.50 32.25Q80.56 32.34 79.88 32.27L79.88 32.27L79.90 32.29Q79.01 32.12 78.25 31.78L78.28 31.81L78.15 31.49L78.03 31.60L78.21 31.78Q77.40 31.27 76.87 29.94L76.75 29.83L76.87 29.94Q75.37 31.18 73.69 33.31L73.77 33.39L73.72 33.34Q74.10 34.06 74.94 35.02L74.84 34.92L74.85 34.93Q76.02 36.86 78.83 37.35L78.83 37.35L78.74 37.26Q79.96 37.53 85.33 37.64Z"/><path fill="#222" d="M107.63 35.43L107.53 35.33L107.68 35.47Q103.43 35.53 102.44 33.20L102.62 33.38L102.47 33.23Q103.25 32.30 104.81 30.51L104.81 30.51L104.93 30.63Q105.35 32.58 108.36 32.69L108.37 32.70L108.40 32.73Q111.78 32.80 113.42 31.47L113.33 31.38L113.39 31.44Q114.70 29.74 114.63 27.04L114.74 27.15L114.70 27.11Q114.58 22.08 109.78 22.31L109.69 22.22L109.70 22.23Q106.91 22.41 105.16 23.66L105.25 23.76L104.85 23.51L104.58 23.32L104.60 23.34Q105.03 20.27 104.92 17.53L104.91 17.51L104.88 17.49Q104.82 14.91 104.47 11.60L104.41 11.53L104.33 11.46Q108.05 12.47 111.86 12.36L111.98 12.48L111.93 12.43Q115.66 12.28 119.24 11.02L119.33 11.11L118.80 12.67L118.64 12.51Q118.42 13.36 118.23 14.20L118.18 14.15L118.17 14.14Q115.02 15.14 111.13 15.14L111.19 15.19L111.22 15.22Q109.79 15.24 108.31 15.09L108.34 15.12L108.22 15.00Q108.23 15.77 107.89 20.23L107.93 20.26L107.93 20.27Q108.60 19.65 110.66 19.50L110.74 19.58L110.76 19.60Q114.47 19.80 115.92 21.48L115.84 21.40L115.89 21.45Q117.30 23.02 117.57 26.86L117.50 26.79L117.56 26.85Q117.85 31.07 116.64 33.09L116.68 33.13L116.52 32.97Q114.61 34.99 111.30 35.21L111.30 35.21L111.37 35.28Q110.33 35.31 107.67 35.46ZM113.72 37.75L113.70 37.72L113.66 37.69Q116.97 37.64 118.87 36.54L119.02 36.69L118.91 36.58Q119.92 35.08 119.92 32.99L120.01 33.07L119.91 32.97Q119.99 29.97 119.04 25.86L119.04 25.86L118.98 25.79Q118.69 24.14 117.47 22.73L117.36 22.62L117.38 22.67L117.15 22.37L116.88 22.26L116.93 22.30Q116.61 21.57 115.96 20.88L115.87 20.79L115.91 20.87L115.83 20.78Q114.41 19.21 110.71 19.21L110.65 19.14L110.44 19.20L110.39 19.15Q110.45 18.56 110.64 17.46L110.68 17.50L110.69 17.51Q115.78 17.72 119.81 16.09L119.79 16.07L119.82 16.09Q120.11 14.56 121.06 11.74L121.15 11.83L118.94 12.67L119.00 12.72Q119.32 11.52 119.81 10.37L119.87 10.43L119.83 10.40Q116.08 11.93 111.96 12.01L111.90 11.94L111.98 12.03Q107.84 12.11 103.88 11.00L103.88 11.01L103.83 10.95Q104.50 15.36 104.50 19.77L104.46 19.73L104.56 19.83Q104.63 21.80 104.51 23.70L104.38 23.58L104.42 23.62Q104.71 23.83 105.28 24.13L105.21 24.06L105.36 24.20Q105.69 23.97 106.34 23.63L106.32 23.61L106.31 23.60Q106.23 24.32 106.01 25.84L105.97 25.81L105.93 25.76Q106.40 26.02 106.82 26.24L106.73 26.15L106.84 26.26Q109.61 24.50 111.48 24.50L111.41 24.43L111.49 24.51Q112.73 24.42 113.91 25.07L114.07 25.23L114.02 25.18Q114.40 26.24 114.44 27.19L114.33 27.09L114.29 27.04Q114.37 29.64 113.34 30.74L113.34 30.74L113.31 30.71Q112.09 32.08 109.84 32.31L109.83 32.30L109.70 32.16Q108.92 32.41 108.23 32.33L108.08 32.18L108.11 32.21Q107.38 32.21 106.62 31.86L106.54 31.79L106.61 31.66L106.41 31.69L106.39 31.67Q105.69 31.28 105.16 29.95L105.11 29.90L105.06 29.84Q103.75 31.28 102.08 33.41L101.97 33.31L102.06 33.40Q102.39 34.07 103.23 35.02L103.27 35.06L103.12 34.91Q104.32 36.88 107.14 37.37L107.03 37.27L107.10 37.34Q108.34 37.62 113.71 37.73Z"/></svg>