<svg xmlns="http://www.w3.org/2000/svg" width="200" height="40" viewBox="0,0,200,40"><path d="M3 13 C112 39,92 11,198 15" stroke="#999" fill="none"/><path d="M7 27 C104 4,99 22,196 35" stroke="#333" fill="none"/><path fill="#222" d="M25.23 24.04L25.27 24.08L25.25 24.06Q23.39 23.91 22.15 25.34L22.18 25.37L22.17 25.36Q21.01 26.86 20.82 28.77L20.75 28.71L20.71 28.66Q20.65 30.88 21.73 31.85L21.76 31.88L21.67 31.79Q22.83 32.84 24.92 32.72L24.80 32.60L24.84 32.64Q27.02 32.57 28.12 31.88L28.10 31.87L28.04 31.80Q29.23 30.75 29.23 29.19L29.17 29.13L29.23 29.18Q29.08 28.66 29.01 28.28L29.16 28.43L29.07 28.34Q29.26 26.78 28.16 25.43L28.14 25.41L28.13 25.40Q27.00 24.03 25.33 24.14ZM24.85 35.20L24.87 35.21L24.81 35.16Q20.52 35.24 19.11 34.48L19.06 34.43L19.10 34.47Q18.16 33.80 17.97 32.09L17.78 31.90L17.96 32.08Q17.79 31.26 17.83 30.53L17.78 30.49L17.79 30.50Q18.03 29.64 18.03 29.18L18.05 29.20L17.94 29.09Q18.42 26.25 18.57 25.57L18.67 25.67L18.51 25.51Q19.14 23.74 19.98 22.33L19.81 22.17L19.83 22.18Q22.60 17.91 28.53 11.55L28.58 11.59L28.41 11.43Q31.21 11.26 33.42 10.46L33.35 10.39L33.28 10.31Q26.54 17.89 23.34 22.11L23.24 22.02L23.26 22.03Q24.30 21.59 25.59 21.59L25.62 21.61L25.53 21.53Q29.01 21.70 30.53 23.64L30.50 23.60L30.35 23.45Q31.73 25.14 32.07 28.68L32.19 28.80L32.06 28.67Q32.28 29.54 32.28 30.15L32.13 29.99L32.15 30.01Q32.23 33.21 30.02 34.28L30.07 34.33L30.04 34.30Q28.84 34.93 24.96 35.31ZM27.15 37.61L27.21 37.67L27.15 37.62Q28.47 37.60 30.45 37.68L30.44 37.66L30.37 37.60Q32.14 37.80 33.70 37.08L33.72 37.11L33.65 37.03Q34.81 36.29 34.81 34.50L34.74 34.43L34.69 34.38Q34.80 34.00 34.63 33.01L34.60 32.98L34.65 33.02Q34.35 31.91 34.35 31.45L34.33 31.43L34.46 31.57Q33.57 26.83 31.98 24.93L31.87 24.82L31.95 24.90Q31.84 24.75 31.69 24.52L31.63 24.46L31.43 24.34L31.29 24.24L31.33 24.28Q30.87 23.67 30.27 22.72L30.41 22.86L30.34 22.80Q29.38 21.80 27.40 21.34L27.38 21.32L27.47 21.41Q28.68 19.80 31.65 16.11L31.65 16.11L35.87 10.81L35.82 10.76Q34.36 11.74 31.97 12.51L31.98 12.52L31.87 12.41Q32.91 11.54 34.69 9.56L34.68 9.55L34.54 9.41Q32.23 10.56 28.35 11.13L28.41 11.20L28.24 11.03Q22.56 16.96 19.59 21.90L19.73 22.05L19.59 21.91Q18.06 24.41 17.49 30.66L17.66 30.83L17.57 30.74Q17.57 31.38 17.65 32.34L17.49 32.18L17.62 32.31Q17.56 33.93 18.67 34.84L18.71 34.88L18.77 34.94Q19.21 35.16 19.17 35.20L19.11 35.13L19.15 35.17Q19.44 36.00 20.24 36.41L20.30 36.48L20.18 36.35Q21.67 37.09 23.62 37.28L23.74 37.40L23.70 37.36Q23.59 37.26 27.10 37.56ZM26.90 26.36L26.85 26.31L26.97 26.43Q27.50 26.27 28.45 26.77L28.44 26.76L28.39 26.71Q28.75 27.68 28.75 28.33L28.83 28.40L28.85 28.43Q28.89 30.14 27.94 31.13L27.98 31.17L27.97 31.16Q26.91 31.90 24.82 32.20L24.82 32.20L24.91 32.29Q23.48 32.31 22.95 32.04L22.85 31.94L22.82 31.92Q22.72 31.55 22.72 31.25L22.63 31.16L22.75 31.27Q22.48 27.96 25.41 26.66L25.46 26.71L25.41 26.66Q26.22 26.37 26.98 26.44Z"/><path fill="#111" d="M107.53 35.32L107.55 35.35L107.60 35.40Q103.50 35.60 102.51 33.28L102.54 33.30L102.59 33.36Q103.35 32.41 104.92 30.62L104.81 30.51L104.90 30.60Q105.35 32.57 108.35 32.68L108.36 32.69L108.26 32.59Q111.81 32.83 113.45 31.50L113.28 31.33L113.44 31.49Q114.77 29.82 114.70 27.11L114.67 27.08L114.76 27.17Q114.59 22.09 109.79 22.32L109.68 22.21L109.71 22.23Q106.95 22.45 105.20 23.70L105.26 23.77L104.77 23.43L104.75 23.49L104.66 23.40Q104.96 20.19 104.84 17.45L104.92 17.53L104.84 17.44Q104.76 14.86 104.42 11.55L104.39 11.51L104.36 11.48Q108.00 12.42 111.80 12.30L111.98 12.48L111.82 12.32Q115.79 12.40 119.37 11.15L119.29 11.07L118.64 12.52L118.70 12.58Q118.32 13.27 118.13 14.10L118.19 14.16L118.26 14.23Q115.09 15.21 111.21 15.21L111.22 15.22L111.30 15.30Q109.77 15.22 108.29 15.07L108.19 14.97L108.26 15.04Q108.14 15.68 107.80 20.14L107.79 20.13L107.82 20.16Q108.64 19.68 110.70 19.53L110.75 19.59L110.65 19.49Q114.50 19.83 115.95 21.51L115.97 21.53L115.83 21.39Q117.39 23.10 117.65 26.95L117.65 26.94L117.66 26.95Q117.74 30.96 116.52 32.97L116.68 33.13L116.57 33.02Q114.60 34.97 111.28 35.20L111.19 35.10L111.37 35.28Q110.22 35.19 107.55 35.35ZM113.68 37.71L113.58 37.61L113.65 37.67Q117.01 37.68 118.91 36.58L118.88 36.54L118.88 36.55Q119.91 35.06 119.91 32.97L119.97 33.04L120.05 33.11Q120.01 29.99 119.06 25.88L118.95 25.77L119.03 25.85Q118.53 23.98 117.31 22.57L117.31 22.57L117.41 22.70L117.20 22.42L116.78 22.15L116.81 22.18Q116.52 21.48 115.88 20.79L115.92 20.84L115.86 20.82L115.94 20.89Q114.49 19.29 110.80 19.29L110.72 19.21L110.53 19.29L110.44 19.20Q110.54 18.66 110.73 17.55L110.75 17.57L110.64 17.46Q115.77 17.71 119.80 16.08L119.66 15.94L119.71 15.98Q120.06 14.51 121.02 11.69L121.03 11.71L119.03 12.75L119.02 12.74Q119.30 11.50 119.80 10.36L119.95 10.51L119.84 10.40Q116.04 11.89 111.93 11.97L111.88 11.92L111.87 11.91Q107.74 12.01 103.78 10.91L103.78 10.91L103.91 11.03Q104.45 15.31 104.45 19.72L104.56 19.83L104.57 19.84Q104.47 21.65 104.36 23.55L104.48 23.67L104.52 23.71Q104.62 23.74 105.19 24.04L105.35 24.20L105.36 24.21Q105.67 23.95 106.32 23.61L106.24 23.53L106.17 23.46Q106.12 24.20 105.89 25.73L105.94 25.78L106.04 25.88Q106.39 26.00 106.80 26.22L106.74 26.16L106.85 26.27Q109.63 24.52 111.50 24.52L111.52 24.55L111.43 24.45Q112.78 24.47 113.96 25.12L113.98 25.14L113.90 25.06Q114.25 26.10 114.29 27.05L114.35 27.11L114.42 27.18Q114.48 29.75 113.45 30.86L113.35 30.75L113.49 30.89Q112.07 32.07 109.83 32.29L109.74 32.21L109.81 32.28Q108.89 32.39 108.21 32.31L108.12 32.23L108.09 32.19Q107.37 32.20 106.61 31.85L106.64 31.89L106.61 31.66L106.40 31.68L106.43 31.71Q105.63 31.22 105.10 29.88L105.13 29.92L105.05 29.84Q103.74 31.27 102.06 33.40L102.09 33.43L102.07 33.40Q102.45 34.13 103.29 35.08L103.19 34.99L103.13 34.92Q104.24 36.79 107.05 37.29L107.18 37.41L107.01 37.24Q108.30 37.58 113.67 37.70Z"/><path fill="#333" d="M166.66 24.04L166.81 24.20L166.69 24.08Q164.93 24.03 163.70 25.46L163.70 25.46L163.60 25.37Q162.52 26.95 162.33 28.85L162.19 28.71L162.28 28.80Q161.99 30.80 163.08 31.77L163.11 31.80L163.17 31.87Q164.18 32.76 166.27 32.64L166.29 32.66L166.24 32.61Q168.29 32.42 169.40 31.73L169.52 31.86L169.46 31.79Q170.62 30.71 170.62 29.15L170.60 29.13L170.66 29.18Q170.53 28.68 170.45 28.30L170.44 28.28L170.48 28.32Q170.62 26.71 169.51 25.36L169.47 25.32L169.49 25.33Q168.45 24.05 166.78 24.16ZM166.33 35.25L166.38 35.30L166.38 35.30Q161.92 35.22 160.51 34.46L160.61 34.56L160.50 34.45Q159.54 33.75 159.35 32.04L159.28 31.97L159.23 31.92Q159.28 31.33 159.32 30.60L159.23 30.51L159.33 30.61Q159.35 29.53 159.35 29.07L159.40 29.12L159.34 29.06Q159.94 26.34 160.09 25.66L159.99 25.56L160.13 25.70Q160.55 23.72 161.39 22.31L161.25 22.18L161.22 22.15Q164.03 17.92 169.97 11.56L170.00 11.59L169.85 11.44Q172.62 11.24 174.83 10.44L174.79 10.40L174.86 10.47Q168.02 17.94 164.82 22.17L164.69 22.04L164.70 22.04Q165.83 21.70 167.13 21.70L167.03 21.60L167.10 21.67Q170.24 21.50 171.77 23.44L171.94 23.62L171.91 23.59Q173.28 25.26 173.62 28.80L173.52 28.70L173.57 28.74Q173.69 29.52 173.69 30.12L173.60 30.03L173.64 30.08Q173.67 33.23 171.47 34.30L171.45 34.28L171.44 34.27Q170.11 34.77 166.23 35.15ZM168.49 37.53L168.53 37.57L168.53 37.57Q169.89 37.59 171.87 37.66L171.93 37.73L171.82 37.62Q173.48 37.72 175.04 36.99L175.03 36.98L175.10 37.06Q176.17 36.22 176.17 34.43L176.12 34.38L176.11 34.37Q176.25 34.01 176.08 33.02L175.90 32.85L175.97 32.92Q175.85 31.98 175.85 31.52L175.86 31.53L175.90 31.57Q174.98 26.80 173.38 24.90L173.36 24.88L173.33 24.85Q173.18 24.66 173.02 24.43L173.08 24.49L172.77 24.25L172.72 24.25L172.77 24.29Q172.41 23.78 171.80 22.83L171.76 22.79L171.86 22.89Q170.86 21.85 168.88 21.39L168.98 21.49L168.88 21.39Q170.05 19.74 173.02 16.05L173.03 16.06L177.22 10.74L177.28 10.79Q175.65 11.61 173.25 12.37L173.33 12.44L173.43 12.54Q174.28 11.49 176.07 9.51L176.11 9.55L176.05 9.49Q173.67 10.58 169.79 11.15L169.87 11.23L169.69 11.04Q163.99 16.96 161.02 21.90L161.07 21.96L161.11 21.99Q159.60 24.52 159.03 30.77L158.92 30.66L159.03 30.77Q159.00 31.38 159.07 32.33L158.97 32.23L159.03 32.29Q159.04 33.98 160.14 34.89L160.08 34.83L160.10 34.85Q160.63 35.14 160.59 35.18L160.58 35.17L160.43 35.02Q160.89 36.02 161.69 36.44L161.66 36.40L161.66 36.40Q163.10 37.08 165.04 37.27L165.17 37.40L165.09 37.32Q165.03 37.27 168.54 37.57ZM168.37 26.40L168.35 26.38L168.36 26.39Q168.94 26.28 169.89 26.78L169.91 26.80L169.87 26.76Q170.32 27.82 170.32 28.47L170.27 28.41L170.25 28.40Q170.46 30.29 169.51 31.28L169.38 31.15L169.43 31.19Q168.39 31.94 166.29 32.24L166.26 32.21L166.34 32.29Q164.94 32.34 164.41 32.07L164.40 32.06L164.34 32.01Q164.14 31.54 164.14 31.23L164.05 31.15L164.05 31.14Q163.94 27.99 166.87 26.70L166.81 26.63L166.93 26.75Q167.70 26.42 168.46 26.50Z"/><path fill="#333" d="M64.36 18.12L64.28 18.04L64.38 18.14Q62.52 20.81 59.86 26.44L59.71 26.30L57.87 30.71L57.85 30.68Q56.87 32.48 55.53 34.72L55.70 34.89L55.65 34.84Q56.04 34.77 54.36 34.81L54.41 34.85L54.46 34.91Q54.48 34.93 53.23 34.93L53.17 34.87L53.13 34.83Q52.48 33.42 49.55 26.26L49.39 26.11L49.53 26.24Q47.36 20.88 45.27 17.87L45.31 17.92L45.26 17.86Q45.91 20.83 45.91 23.99L46.05 24.14L45.97 24.06Q45.92 30.51 42.95 36.07L43.11 36.23L43.10 36.23Q41.69 36.49 39.33 37.21L39.25 37.13L39.25 37.13Q43.05 31.56 43.05 24.33L43.00 24.28L42.99 24.27Q42.93 15.27 37.53 8.30L37.55 8.33L37.59 8.36Q39.17 9.03 41.53 9.72L41.53 9.72L41.57 9.76Q48.61 16.49 54.70 29.82L54.77 29.88L54.80 29.92Q58.19 22.80 60.40 19.30L60.39 19.28L60.41 19.31Q64.00 13.54 67.96 10.07L67.91 10.02L67.91 10.02Q69.26 9.89 71.62 9.12L71.56 9.06L71.57 9.07Q66.65 15.77 66.65 24.37L66.55 24.27L66.53 24.25Q66.65 31.03 70.08 36.55L70.15 36.62L70.05 36.53Q68.69 36.19 65.95 35.58L65.93 35.57L66.01 35.65Q63.59 30.79 63.59 24.81L63.63 24.85L63.67 24.89Q63.67 21.46 64.35 18.11ZM65.85 36.06L65.78 35.99L65.72 35.92Q66.46 36.09 67.91 36.36L67.98 36.43L67.84 36.29Q68.28 37.04 69.23 38.52L69.42 38.71L69.33 38.62Q71.49 39.07 74.96 40.29L74.99 40.33L74.92 40.25Q68.68 33.93 68.68 24.11L68.58 24.01L68.74 24.17Q68.59 16.30 72.97 10.17L72.95 10.15L70.91 11.01L70.84 10.93Q71.90 9.44 72.54 8.56L72.50 8.52L72.49 8.51Q70.55 9.08 67.93 9.62L67.92 9.61L67.94 9.63Q61.15 15.71 55.10 28.31L55.23 28.45L55.18 28.40Q49.91 17.34 44.96 12.08L45.07 12.19L45.13 12.25Q44.71 12.14 44.14 12.03L43.99 11.87L42.96 10.77L42.79 10.59Q42.36 10.09 41.67 9.48L41.63 9.43L41.52 9.33Q38.60 8.46 36.81 7.74L36.69 7.62L36.86 7.78Q42.79 14.93 42.79 24.34L42.80 24.35L42.84 24.39Q42.70 31.86 38.55 37.72L38.55 37.73L38.68 37.86Q39.36 37.62 40.65 37.20L40.67 37.22L40.50 37.05Q40.47 37.40 39.06 39.49L39.11 39.54L38.99 39.42Q40.80 38.95 44.30 38.19L44.29 38.17L44.27 38.15Q48.00 31.11 47.81 23.34L47.93 23.47L47.99 23.52Q49.33 27.33 52.79 35.22L52.85 35.28L52.82 35.24Q53.09 35.21 53.32 35.21L53.30 35.19L53.81 35.17L53.81 35.17Q54.36 35.95 55.16 37.25L55.06 37.14L55.07 37.15Q56.69 37.14 56.69 37.14L56.76 37.21L56.76 37.20Q57.65 37.07 58.30 37.15L58.38 37.22L58.46 37.31Q59.92 33.17 63.27 25.17L63.24 25.15L63.33 25.24Q63.28 30.74 65.87 36.07Z"/><path fill="#333" d="M85.87 22.26L85.77 22.17L85.74 22.14Q86.51 22.11 87.92 21.96L88.08 22.11L87.90 21.94Q87.90 22.63 87.90 23.27L87.99 23.36L87.95 24.58L87.90 24.53Q87.10 24.57 86.26 24.64L86.23 24.61L86.31 24.68Q85.42 24.67 84.58 24.63L84.66 24.72L84.50 24.55Q81.77 30.85 78.34 35.45L78.38 35.49L78.29 35.40Q75.81 36.07 74.51 36.68L74.45 36.62L74.52 36.69Q78.54 30.89 81.58 24.61L81.61 24.64L79.00 24.65L78.95 24.60Q79.01 23.33 78.89 21.99L78.87 21.97L78.88 21.98Q80.75 22.10 82.80 22.10L82.94 22.23L84.83 18.53L84.77 18.46Q85.83 16.64 87.05 15.04L86.90 14.89L86.94 14.92Q85.41 15.11 83.81 15.11L83.84 15.14L83.86 15.16Q77.70 15.09 73.93 12.88L73.92 12.87L73.22 11.11L73.27 11.15Q72.97 10.36 72.59 9.49L72.58 9.47L72.53 9.42Q76.88 12.06 82.59 12.29L82.74 12.44L82.71 12.41Q87.87 12.66 93.01 10.68L92.99 10.66L92.87 10.54Q92.73 11.00 92.23 11.88L92.18 11.83L92.30 11.94Q88.56 16.58 85.70 22.10ZM93.90 13.32L93.81 13.23L94.81 11.22L94.76 11.18Q93.91 11.77 92.24 12.50L92.25 12.51L92.32 12.08L92.31 12.08Q92.46 11.96 92.58 11.85L92.61 11.88L92.67 11.94Q92.98 11.18 93.71 9.85L93.83 9.97L93.72 9.87Q88.34 12.10 82.59 11.87L82.60 11.88L82.71 11.99Q76.68 11.71 71.92 8.74L71.80 8.61L71.83 8.65Q72.90 10.55 73.74 13.22L73.82 13.30L73.76 13.24Q74.88 13.90 75.68 14.21L75.55 14.08L75.67 14.21Q75.76 14.49 76.22 16.35L76.34 16.47L76.30 16.43Q79.39 17.61 84.91 17.46L84.96 17.52L84.94 17.49Q84.59 18.02 82.61 21.79L82.62 21.80L82.65 21.83Q80.50 21.73 78.52 21.54L78.64 21.67L78.52 21.54Q78.74 22.53 78.74 23.40L78.66 23.32L78.67 25.04L80.40 25.10L80.43 26.54L80.44 26.55Q76.44 33.85 73.66 37.43L73.60 37.37L73.66 37.43Q75.33 36.74 76.97 36.25L76.93 36.21L76.90 36.18Q76.16 37.04 74.79 38.75L74.87 38.83L74.89 38.85Q78.04 37.74 80.48 37.51L80.35 37.38L80.36 37.39Q83.42 33.75 86.54 26.98L86.46 26.89L89.92 27.12L89.99 27.19Q89.88 26.24 89.88 25.33L89.80 25.25L89.84 23.50L89.79 23.45Q89.52 23.44 88.97 23.48L88.97 23.48L89.12 23.64Q88.44 23.54 88.17 23.54L88.13 23.50L88.11 23.48Q88.25 23.50 88.28 23.35L88.27 23.33L88.23 23.03L88.23 23.03Q90.85 18.00 93.93 13.35Z"/><path fill="#444" d="M138.34 35.32L138.20 35.17L138.19 35.17Q134.75 35.31 133.11 34.77L133.14 34.80L133.23 34.89Q131.15 34.14 130.84 30.75L130.80 30.71L132.25 29.65L132.34 29.74Q132.98 29.12 133.74 28.62L133.78 28.67L133.89 28.77Q133.55 30.60 135.14 31.82L135.16 31.84L135.22 31.89Q136.47 32.88 138.60 32.69L138.59 32.68L138.51 32.60Q142.85 32.14 142.66 28.60L142.80 28.74L142.69 28.63Q142.54 26.39 139.91 25.17L140.00 25.25L139.90 25.15Q137.12 24.16 134.76 22.94L134.67 22.85L134.78 22.96Q132.23 21.63 131.24 16.95L131.19 16.90L131.11 16.82Q131.08 16.45 130.96 15.68L131.05 15.77L130.88 15.60Q130.96 14.99 131.04 14.42L130.90 14.29L131.04 14.43Q131.20 12.83 132.45 12.38L132.45 12.37L132.42 12.35Q134.84 11.49 138.84 11.68L138.83 11.67L138.87 11.72Q140.52 11.65 141.32 11.73L141.50 11.91L141.46 11.86Q142.81 11.93 143.88 12.38L143.93 12.43L143.87 12.37Q145.99 12.85 146.22 15.33L146.27 15.38L146.32 15.43Q145.32 16.18 143.11 17.52L142.95 17.35L143.14 17.55Q142.61 14.42 138.23 14.42L138.30 14.49L138.33 14.52Q136.33 14.43 135.34 15.12L135.39 15.16L135.32 15.09Q134.11 15.56 134.34 17.35L134.48 17.49L134.46 17.47Q134.65 19.60 137.62 21.12L137.70 21.20L137.60 21.10Q138.13 21.33 142.62 22.97L142.76 23.11L142.67 23.01Q145.28 24.48 145.70 28.86L145.65 28.81L145.77 28.93Q145.65 28.96 145.72 30.21L145.76 30.25L145.74 30.23Q145.84 33.04 144.28 34.14L144.31 34.17L144.34 34.20Q142.37 35.05 138.18 35.16ZM140.64 37.70L140.54 37.59L140.53 37.58Q141.96 37.65 143.94 37.65L143.96 37.66L144.06 37.76Q146.12 37.73 147.37 37.31L147.31 37.25L147.42 37.35Q148.53 36.41 148.45 34.62L148.57 34.73L148.46 34.63Q148.40 33.62 148.02 31.56L148.14 31.68L148.00 31.54Q147.24 27.01 145.15 25.15L145.15 25.15L145.01 25.01Q144.26 23.46 142.93 22.74L142.92 22.73L137.73 20.77L137.62 20.67Q137.28 20.48 136.82 20.25L136.81 20.24L136.77 19.93L136.69 19.51L136.73 19.55Q136.58 18.14 137.73 17.54L137.70 17.51L137.72 17.53Q138.45 16.93 140.16 16.74L140.18 16.76L140.25 16.83Q141.39 16.70 142.53 17.16L142.53 17.16L142.38 17.01Q142.64 17.31 142.83 18.14L142.76 18.08L142.84 18.16Q142.88 17.86 143.38 17.63L143.34 17.59L143.52 17.77Q144.14 18.58 144.26 19.72L144.27 19.74L144.18 19.65Q144.25 19.61 147.91 17.02L148.00 17.11L148.05 17.16Q147.77 14.52 146.32 13.83L146.36 13.87L146.33 13.84Q145.67 12.50 144.23 11.97L144.29 12.03L144.26 12.00Q141.96 11.18 138.76 11.18L138.88 11.31L138.73 11.15Q133.83 11.16 131.96 11.85L132.05 11.94L131.91 11.80Q130.66 12.34 130.55 14.01L130.65 14.12L130.63 14.09Q130.58 14.62 131.00 16.83L131.03 16.85L130.94 16.76Q131.71 20.62 133.88 22.86L133.84 22.82L133.70 22.68Q134.66 24.56 136.16 25.24L136.06 25.14L136.18 25.26Q137.55 25.81 141.47 27.37L141.47 27.37L141.41 27.35L142.13 27.76L142.23 27.90L142.19 27.86Q142.33 28.27 142.37 28.61L142.41 28.65L142.35 28.59Q142.54 32.17 138.61 32.32L138.54 32.25L138.57 32.28Q137.46 32.35 136.17 31.97L135.99 31.79L136.05 31.85Q135.72 31.03 135.72 30.30L135.84 30.42L135.74 30.32Q135.70 30.01 135.73 29.74L135.76 29.77L135.82 29.83Q135.33 29.99 134.53 30.48L134.52 30.47L134.64 30.59Q134.18 29.52 134.33 28.15L134.30 28.12L134.35 28.16Q132.10 29.20 130.50 30.60L130.48 30.58L130.60 30.70Q130.64 31.50 130.72 32.53L130.74 32.55L130.61 32.42Q131.04 34.26 132.34 35.02L132.28 34.97L132.35 35.04Q133.63 36.93 136.18 37.31L136.01 37.14L135.99 37.12Q137.58 37.38 140.51 37.57Z"/></svg>