<svg xmlns="http://www.w3.org/2000/svg" width="200" height="40" viewBox="0,0,200,40"><path d="M6 35 C110 35,98 33,188 23" stroke="#333" fill="none"/><path fill="#222" d="M53.96 14.76L53.92 14.72L53.95 14.75Q51.84 14.73 50.89 14.89L50.96 14.96L50.95 14.95Q49.30 15.16 48.08 15.69L48.00 15.62L48.14 15.76Q44.53 17.09 44.41 21.77L44.40 21.76L44.50 21.86Q44.31 24.41 44.96 27.34L45.07 27.46L45.08 27.46Q45.97 31.52 49.59 32.70L49.60 32.71L49.57 32.68Q51.50 33.28 52.95 33.13L52.96 33.14L53.26 32.98L53.26 32.98Q53.54 33.07 53.73 33.11L53.69 33.07L53.72 33.10Q53.74 32.97 53.89 32.93L53.89 32.93L54.00 33.04Q56.70 32.84 58.07 32.27L58.04 32.24L54.46 28.70L54.40 28.64Q54.76 28.35 55.36 27.74L55.30 27.68L56.19 26.74L56.30 26.85Q58.06 28.84 60.04 30.90L60.05 30.90L60.04 30.89Q62.34 29.05 62.61 23.68L62.67 23.74L62.74 23.81Q62.76 22.84 62.76 21.92L62.66 21.82L62.77 21.93Q62.65 16.14 57.59 15.04L57.76 15.21L57.63 15.08Q56.45 14.89 53.94 14.74ZM66.54 36.63L66.57 36.66L66.56 36.65Q66.07 37.19 64.89 38.06L64.94 38.12L60.50 34.40L60.46 34.36Q57.95 35.54 53.69 35.58L53.66 35.56L53.70 35.59Q47.11 35.66 44.29 33.41L44.42 33.55L44.33 33.46Q42.61 31.74 42.16 28.77L42.10 28.71L42.16 28.77Q41.89 26.91 41.51 23.33L41.53 23.35L41.59 23.40Q41.49 22.58 41.37 20.83L41.51 20.97L41.52 20.97Q41.34 19.38 41.37 18.51L41.36 18.49L41.40 18.53Q41.44 15.42 43.19 13.86L43.17 13.83L43.09 13.75Q44.65 12.46 47.85 11.96L47.81 11.92L47.93 12.04Q50.39 11.65 53.29 11.73L53.22 11.66L53.32 11.76Q60.72 11.78 63.84 14.14L63.81 14.10L63.82 14.11Q66.00 16.26 65.73 21.17L65.82 21.26L65.71 21.14Q65.59 24.87 65.40 26.20L65.43 26.24L65.42 26.22Q64.66 30.60 62.34 32.92L62.45 33.04L62.42 33.00Q63.96 34.32 66.70 36.79ZM61.81 12.48L61.76 12.44L61.80 12.47Q59.74 11.71 53.23 11.21L53.17 11.15L53.17 11.15Q51.94 11.33 49.16 11.45L49.13 11.42L49.02 11.30Q44.83 11.57 42.58 13.55L42.55 13.52L42.66 13.62Q41.05 15.14 41.05 18.30L40.92 18.17L40.96 18.21Q40.93 19.01 41.08 20.73L41.11 20.75L41.07 20.72Q41.35 22.56 41.35 23.44L41.23 23.31L41.36 23.44Q41.48 25.16 41.86 28.74L41.88 28.76L41.83 28.71Q42.07 31.46 43.67 33.52L43.70 33.55L43.70 33.55Q44.06 34.41 45.28 35.55L45.23 35.50L45.28 35.55Q47.96 37.50 53.14 37.77L53.25 37.88L53.19 37.83Q53.64 37.93 56.03 38.04L55.99 38.00L55.94 37.95Q60.80 38.16 63.08 37.10L63.14 37.15L63.08 37.09Q63.84 37.66 68.56 41.24L68.64 41.32L68.72 41.40Q69.32 40.85 70.61 39.86L70.44 39.70L70.59 39.84Q69.62 39.06 68.82 38.38L68.90 38.46L67.15 36.90L67.25 36.84L67.32 36.92Q66.72 36.43 65.50 35.40L65.61 35.51L65.55 35.45Q67.44 32.92 67.44 28.39L67.38 28.33L67.37 28.32Q67.42 27.95 67.46 27.12L67.42 27.08L67.49 27.15Q67.56 26.34 67.56 25.92L67.52 25.89L67.42 25.78Q67.40 20.25 66.68 17.89L66.82 18.02L66.72 17.93Q66.45 16.75 65.58 15.68L65.58 15.68L65.54 15.65Q64.74 13.51 61.81 12.49ZM55.75 17.01L55.72 16.98L55.77 17.03Q59.91 17.02 61.74 18.62L61.68 18.56L61.60 18.48Q62.26 19.79 62.38 21.12L62.26 21.00L62.31 21.06Q62.53 22.46 62.46 23.83L62.27 23.64L62.31 23.68Q62.05 28.72 60.11 30.43L60.02 30.34L60.09 30.41Q58.75 29.07 56.24 26.33L56.18 26.27L56.35 26.44Q55.57 27.18 54.01 28.74L53.97 28.71L53.99 28.73Q54.45 29.23 55.59 30.41L55.62 30.43L55.63 30.56L55.45 30.37Q56.12 31.00 57.14 32.07L57.18 32.10L57.16 32.08Q56.10 32.28 53.77 32.58L53.86 32.67L53.20 32.54L52.98 32.74L52.90 32.70L52.91 32.70Q49.40 32.66 47.42 31.03L47.37 30.97L47.35 30.95Q46.50 29.04 46.54 25.92L46.43 25.81L46.38 25.76Q46.64 17.15 55.81 17.07Z"/><path fill="#222" d="M164.12 35.35L164.10 35.33L164.23 35.46Q159.99 35.52 159.00 33.20L159.05 33.25L159.12 33.31Q159.82 32.30 161.38 30.51L161.40 30.53L161.34 30.47Q161.97 32.63 164.98 32.74L165.00 32.76L164.82 32.58Q168.39 32.84 170.03 31.51L169.99 31.46L169.97 31.44Q171.29 29.76 171.21 27.05L171.32 27.17L171.26 27.10Q171.11 22.04 166.31 22.27L166.29 22.25L166.42 22.38Q163.45 22.37 161.70 23.63L161.74 23.68L161.38 23.46L161.30 23.47L161.17 23.34Q161.59 20.25 161.47 17.51L161.42 17.46L161.39 17.42Q161.37 14.89 161.03 11.58L160.90 11.46L160.97 11.52Q164.58 12.43 168.39 12.32L168.43 12.36L168.44 12.37Q172.27 12.32 175.85 11.06L175.75 10.96L175.21 12.51L175.24 12.54Q174.95 13.32 174.76 14.15L174.72 14.12L174.80 14.20Q171.75 15.30 167.87 15.30L167.71 15.14L167.85 15.28Q166.37 15.25 164.89 15.09L164.87 15.07L164.80 15.01Q164.80 15.77 164.46 20.22L164.38 20.15L164.45 20.22Q165.33 19.80 167.39 19.65L167.27 19.54L167.29 19.56Q170.97 19.74 172.42 21.41L172.47 21.46L172.51 21.50Q173.92 23.06 174.18 26.91L174.07 26.79L174.03 26.75Q174.42 31.07 173.21 33.09L173.09 32.97L173.22 33.10Q171.13 34.93 167.82 35.16L167.84 35.19L167.80 35.15Q166.80 35.21 164.13 35.36ZM170.29 37.74L170.15 37.61L170.30 37.75Q173.60 37.70 175.50 36.60L175.51 36.60L175.62 36.72Q176.53 35.11 176.53 33.02L176.51 33.01L176.44 32.93Q176.45 29.86 175.50 25.75L175.48 25.73L175.63 25.88Q175.21 24.09 173.99 22.68L173.94 22.63L174.00 22.72L173.79 22.44L173.45 22.25L173.45 22.25Q173.07 21.45 172.42 20.76L172.43 20.78L172.47 20.85L172.44 20.82Q170.97 19.20 167.28 19.20L167.22 19.15L166.94 19.13L167.00 19.18Q167.16 18.70 167.35 17.60L167.25 17.50L167.28 17.53Q172.29 17.67 176.33 16.03L176.23 15.93L176.23 15.93Q176.63 14.50 177.58 11.69L177.69 11.79L175.50 12.65L175.51 12.67Q175.98 11.61 176.48 10.47L176.48 10.47L176.52 10.52Q172.68 11.96 168.57 12.04L168.48 11.95L168.51 11.98Q164.29 11.98 160.33 10.88L160.35 10.90L160.37 10.92Q161.06 15.34 161.06 19.76L161.04 19.74L161.02 19.72Q161.19 21.80 161.08 23.70L161.00 23.62L160.92 23.54Q161.29 23.83 161.86 24.13L161.83 24.10L161.81 24.09Q162.24 23.95 162.89 23.61L162.87 23.58L162.75 23.47Q162.75 24.27 162.52 25.79L162.64 25.90L162.52 25.79Q162.94 25.98 163.36 26.21L163.43 26.28L163.34 26.19Q166.08 24.40 167.95 24.40L167.98 24.43L168.02 24.47Q169.29 24.41 170.47 25.05L170.48 25.07L170.56 25.15Q170.97 26.24 171.01 27.19L170.98 27.16L170.99 27.17Q171.02 29.72 169.99 30.82L169.92 30.75L169.91 30.74Q168.54 31.96 166.29 32.18L166.41 32.30L166.37 32.27Q165.38 32.30 164.70 32.23L164.75 32.28L164.63 32.16Q163.97 32.22 163.20 31.88L163.05 31.73L163.08 31.57L162.98 31.69L163.07 31.78Q162.17 31.19 161.64 29.86L161.70 29.91L161.56 29.78Q160.40 31.36 158.73 33.49L158.67 33.44L158.59 33.36Q159.03 34.14 159.87 35.09L159.81 35.03L159.81 35.03Q160.85 36.83 163.67 37.33L163.58 37.24L163.76 37.42Q164.88 37.59 170.25 37.71Z"/><path fill="#333" d="M84.91 34.88L84.87 34.84L84.92 34.89Q83.00 34.88 80.98 35.07L80.95 35.04L80.99 35.07Q81.52 29.70 81.52 24.87L81.61 24.95L81.55 24.89Q81.66 20.10 81.01 14.88L80.88 14.75L81.03 14.90Q76.41 14.47 73.21 12.79L73.23 12.81L72.41 10.96L72.45 11.00Q72.20 10.45 71.59 9.23L71.69 9.33L71.65 9.29Q76.79 12.03 82.81 12.22L82.66 12.08L82.68 12.09Q88.60 12.31 94.05 10.25L94.00 10.20L93.94 10.14Q93.29 11.63 92.64 13.45L92.75 13.56L92.66 13.47Q89.02 14.74 84.76 14.93L84.76 14.93L84.83 15.01Q84.55 19.94 84.55 24.89L84.53 24.87L84.59 24.93Q84.62 29.91 84.93 34.90ZM94.75 9.58L94.68 9.51L94.77 9.60Q88.93 11.87 82.72 11.68L82.67 11.62L82.68 11.63Q76.02 11.45 70.92 8.48L70.92 8.48L70.91 8.47Q71.61 9.71 72.91 12.98L73.02 13.09L72.96 13.03Q73.65 13.38 74.90 13.95L74.79 13.84L74.81 13.85Q75.15 14.65 75.50 16.18L75.50 16.18L75.46 16.14Q77.76 17.00 80.81 17.22L80.71 17.13L80.82 17.24Q81.23 20.96 81.23 24.73L81.11 24.61L81.23 24.73Q81.22 30.09 80.42 35.46L80.43 35.47L80.35 35.38Q82.10 35.35 82.64 35.35L82.55 35.26L82.49 35.21Q82.62 35.64 82.56 36.30L82.62 36.36L82.58 36.32Q82.55 37.01 82.55 37.35L82.45 37.25L82.47 37.28Q83.71 37.26 85.24 37.34L85.25 37.35L85.27 37.38Q86.03 37.26 87.86 37.41L88.02 37.57L87.91 37.46Q86.62 32.48 86.50 27.30L86.52 27.32L86.51 27.31Q86.42 22.04 86.95 17.13L87.04 17.22L86.99 17.17Q90.88 16.56 94.04 15.34L94.18 15.48L94.11 15.41Q94.73 12.95 95.76 10.90L95.77 10.91L95.89 11.03Q94.42 11.57 93.62 11.88L93.72 11.98L93.63 11.89Q94.14 10.68 94.71 9.54Z"/><path fill="#111" d="M102.14 9.32L102.10 9.28L102.20 9.38Q105.97 11.90 110.73 12.12L110.76 12.15L110.70 12.09Q115.35 12.29 119.61 10.53L119.65 10.58L119.58 10.51Q119.42 11.15 118.66 13.93L118.48 13.74L118.65 13.91Q115.85 14.89 112.88 15.04L112.93 15.08L112.77 14.92Q109.81 15.09 106.92 14.36L107.04 14.48L107.03 14.48Q107.61 17.99 107.80 21.65L107.89 21.73L107.91 21.75Q109.84 21.89 111.44 21.86L111.59 22.00L111.41 21.83Q112.80 22.00 115.20 21.88L115.12 21.80L115.19 21.87Q115.10 22.47 115.10 23.16L115.03 23.09L115.10 24.49L115.10 24.48Q112.74 24.52 107.94 24.60L107.93 24.59L107.94 24.60Q107.80 28.57 107.23 32.57L107.26 32.60L107.21 32.55Q109.97 32.04 112.71 32.15L112.59 32.03L112.69 32.13Q115.32 32.13 117.91 32.97L117.86 32.92L117.94 33.00Q118.05 33.84 118.32 34.60L118.21 34.49L118.79 36.13L118.76 36.10Q115.64 34.88 112.21 34.88L112.04 34.72L112.16 34.83Q107.31 34.86 103.05 37.11L102.96 37.02L103.02 37.08Q105.38 30.31 105.12 23.19L105.15 23.22L105.12 23.19Q104.78 15.96 102.12 9.30ZM102.45 37.72L102.54 37.81L102.45 37.73Q103.79 37.09 104.55 36.74L104.60 36.79L104.51 36.70Q104.38 37.52 103.80 39.04L103.67 38.90L103.70 38.94Q108.33 37.05 113.39 37.32L113.43 37.36L113.45 37.38Q118.54 37.59 122.53 40.30L122.60 40.37L122.59 40.35Q121.29 37.68 120.60 35.74L120.67 35.81L120.72 35.86Q119.58 35.10 118.59 34.76L118.58 34.75L118.62 34.78Q118.24 33.41 118.08 32.61L118.25 32.78L118.06 32.58Q115.06 31.68 111.90 31.68L111.81 31.60L111.83 31.61Q110.71 31.63 109.56 31.74L109.63 31.81L109.64 31.82Q109.71 30.52 109.75 29.30L109.82 29.37L109.92 26.88L109.89 26.85Q111.69 26.75 113.48 26.79L113.39 26.70L113.37 26.68Q115.28 26.80 117.07 26.95L117.07 26.95L117.02 26.91Q117.09 26.10 117.09 25.15L117.01 25.06L117.01 23.16L116.26 23.29L116.15 23.18Q115.85 23.37 115.39 23.37L115.30 23.28L115.27 23.25Q115.26 22.55 115.41 21.26L115.49 21.34L115.54 21.39Q113.84 21.52 112.66 21.55L112.70 21.60L112.71 21.61Q111.81 21.66 109.99 21.58L109.83 21.43L109.93 21.52Q109.88 20.14 109.69 17.32L109.71 17.34L109.73 17.37Q110.72 17.44 111.71 17.44L111.59 17.33L111.67 17.41Q116.47 17.48 120.16 15.58L120.12 15.54L120.02 15.44Q120.66 13.15 121.54 10.94L121.49 10.89L121.46 10.86Q120.30 11.88 119.47 12.22L119.32 12.07L119.35 12.10Q119.67 11.36 120.13 9.80L120.03 9.70L120.23 9.90Q115.52 11.96 110.64 11.66L110.52 11.53L110.57 11.58Q105.40 11.40 101.55 8.54L101.46 8.45L101.42 8.41Q104.42 15.48 104.72 23.10L104.61 22.98L104.61 22.98Q105.04 31.03 102.53 37.80Z"/><path fill="#111" d="M142.43 22.26L142.31 22.14L142.39 22.22Q143.24 22.27 144.65 22.12L144.49 21.96L144.56 22.03Q144.44 22.60 144.44 23.24L144.43 23.23L144.45 24.51L144.54 24.59Q143.65 24.54 142.81 24.62L142.93 24.74L142.82 24.63Q142.06 24.75 141.23 24.71L141.16 24.64L141.13 24.61Q138.37 30.87 134.94 35.48L134.91 35.45L134.81 35.35Q132.37 36.07 131.08 36.68L131.03 36.63L131.09 36.70Q135.16 30.94 138.21 24.66L138.17 24.62L135.70 24.77L135.60 24.68Q135.58 23.33 135.47 22.00L135.42 21.95L135.47 22.00Q137.37 22.15 139.43 22.15L139.36 22.08L141.41 18.53L141.40 18.52Q142.28 16.51 143.50 14.92L143.62 15.03L143.52 14.93Q141.92 15.05 140.32 15.05L140.31 15.03L140.36 15.09Q134.26 15.08 130.50 12.87L130.45 12.83L129.82 11.13L129.91 11.22Q129.59 10.41 129.21 9.53L129.17 9.49L129.10 9.42Q133.54 12.15 139.25 12.38L139.20 12.32L139.15 12.28Q144.40 12.61 149.54 10.63L149.43 10.53L149.42 10.52Q149.26 10.97 148.77 11.85L148.83 11.91L148.74 11.82Q145.17 16.62 142.31 22.14ZM150.42 13.27L150.39 13.24L151.48 11.32L151.30 11.15Q150.43 11.72 148.76 12.44L148.74 12.42L149.03 12.22L149.06 12.26Q148.98 11.91 149.10 11.79L149.14 11.84L149.11 11.81Q149.64 11.27 150.36 9.94L150.37 9.94L150.35 9.93Q145.05 12.24 139.30 12.01L139.23 11.94L139.22 11.93Q133.16 11.62 128.40 8.65L128.40 8.65L128.49 8.74Q129.41 10.50 130.25 13.16L130.30 13.21L130.29 13.20Q131.36 13.81 132.16 14.12L132.26 14.22L132.26 14.22Q132.45 14.60 132.91 16.47L132.86 16.42L132.85 16.41Q135.99 17.65 141.51 17.49L141.58 17.56L141.41 17.39Q141.16 18.02 139.18 21.79L139.18 21.79L139.23 21.83Q137.21 21.87 135.23 21.68L135.27 21.72L135.21 21.66Q135.22 22.43 135.22 23.31L135.22 23.31L135.17 24.97L136.89 25.02L136.93 26.47L136.99 26.53Q133.11 33.95 130.33 37.53L130.24 37.44L130.33 37.53Q131.88 36.72 133.52 36.22L133.44 36.15L133.46 36.17Q132.83 37.14 131.46 38.85L131.48 38.87L131.32 38.71Q134.62 37.74 137.05 37.52L137.02 37.48L136.96 37.43Q139.89 33.65 143.01 26.87L143.07 26.94L146.43 27.06L146.53 27.16Q146.45 26.24 146.45 25.32L146.38 25.26L146.46 23.54L146.50 23.59Q146.16 23.51 145.61 23.55L145.51 23.45L145.62 23.57Q145.13 23.66 144.86 23.66L144.71 23.51L144.87 23.67Q144.79 23.47 144.82 23.32L144.75 23.25L144.90 23.13L144.81 23.04Q147.28 17.85 150.36 13.21Z"/><path d="M8 32 C114 35,107 32,188 4" stroke="#333" fill="none"/><path fill="#333" d="M21.48 27.98L21.54 28.04L21.55 28.05Q24.59 27.63 27.79 27.74L27.79 27.75L27.76 27.72Q27.80 25.24 27.80 22.84L27.69 22.74L27.65 22.70Q27.74 20.31 27.93 17.76L27.86 17.69L27.81 17.64Q26.60 19.37 21.39 27.89ZM31.27 35.23L31.42 35.37L31.35 35.31Q29.70 35.02 27.91 34.94L27.88 34.92L27.80 34.84Q27.63 32.50 27.52 30.03L27.60 30.11L27.49 30.00Q22.34 29.98 17.62 31.39L17.56 31.34L17.50 31.27Q17.55 30.72 17.74 29.73L17.88 29.87L17.82 29.81Q19.65 26.69 23.23 20.41L23.22 20.39L23.16 20.34Q26.06 15.47 29.48 11.58L29.48 11.59L29.51 11.61Q30.34 11.38 32.02 11.11L31.98 11.07L32.10 11.19Q30.16 17.59 30.16 24.63L30.18 24.65L30.18 24.65Q30.26 26.21 30.33 27.70L30.33 27.69L31.62 27.81L31.58 27.77Q32.14 27.76 32.75 27.87L32.75 27.87L32.81 27.94Q32.95 28.95 33.22 30.89L33.12 30.80L33.23 30.90Q31.95 30.57 30.46 30.38L30.45 30.37L30.40 30.32Q30.73 32.44 31.41 35.37ZM33.04 27.52L32.98 27.45L32.98 27.46Q32.81 27.40 32.62 27.40L32.64 27.42L32.18 27.34L32.20 27.36Q32.15 25.93 32.15 24.53L32.16 24.54L32.17 24.55Q32.21 18.19 34.26 12.18L34.23 12.15L34.29 12.21Q33.51 12.45 32.06 12.83L32.06 12.83L31.94 12.71Q32.15 11.93 32.61 10.52L32.67 10.58L32.71 10.63Q31.31 10.90 29.25 11.13L29.32 11.19L29.35 11.22Q25.37 15.51 20.16 24.87L20.16 24.87L22.19 21.16L22.25 21.22Q21.84 22.25 21.57 22.82L21.66 22.91L17.14 31.87L17.12 31.84Q17.70 31.63 18.84 31.25L18.93 31.34L18.87 31.66L18.78 31.56Q18.68 32.27 18.38 33.52L18.28 33.43L18.45 33.59Q22.49 32.19 27.32 32.38L27.26 32.32L27.37 32.43Q27.44 33.41 27.63 35.39L27.55 35.31L27.61 35.37Q28.63 35.32 29.69 35.44L29.72 35.46L29.67 35.41Q29.77 36.04 30.04 37.42L30.00 37.38L30.13 37.51Q31.91 37.62 34.92 38.53L34.94 38.55L35.01 38.62Q33.92 36.39 33.00 33.11L33.11 33.22L34.64 33.76L34.61 33.73Q35.19 33.85 35.87 34.19L35.82 34.14L35.94 34.26Q35.07 31.67 34.91 30.00L34.95 30.03L35.00 30.08Q34.42 29.92 33.28 29.69L33.29 29.71L33.23 29.65Q32.98 28.33 32.98 27.45ZM25.03 27.34L25.10 27.42L25.04 27.36Q25.83 26.09 27.39 23.54L27.43 23.58L27.30 23.45Q27.26 24.36 27.22 25.31L27.34 25.43L27.36 25.46Q27.29 26.37 27.33 27.33L27.31 27.31L27.38 27.37Q26.79 27.31 26.22 27.31L26.30 27.40L26.25 27.35Q25.74 27.45 25.13 27.45Z"/></svg>