<svg xmlns="http://www.w3.org/2000/svg" width="200" height="40" viewBox="0,0,200,40"><path d="M13 34 C104 20,86 4,181 15" stroke="#444" fill="none"/><path fill="#222" d="M138.66 14.61L138.68 14.63L138.78 14.73Q136.76 14.80 135.81 14.96L135.79 14.94L135.79 14.94Q134.20 15.20 132.98 15.74L133.03 15.79L132.98 15.74Q129.51 17.22 129.40 21.90L129.31 21.81L129.27 21.77Q129.20 24.45 129.85 27.38L129.94 27.47L129.81 27.34Q130.72 31.41 134.34 32.59L134.46 32.71L134.33 32.58Q136.26 33.18 137.70 33.02L137.83 33.15L138.17 33.04L138.10 32.96Q138.31 32.99 138.50 33.03L138.45 32.98L138.61 33.13Q138.70 33.07 138.85 33.03L138.81 32.99L138.85 33.03Q141.43 32.72 142.80 32.14L142.78 32.12L139.22 28.60L139.29 28.67Q139.62 28.36 140.23 27.75L140.13 27.64L141.12 26.81L141.18 26.87Q143.04 28.96 145.02 31.01L144.87 30.86L145.02 31.02Q147.32 29.17 147.59 23.80L147.53 23.74L147.47 23.68Q147.59 22.81 147.59 21.90L147.59 21.89L147.61 21.92Q147.67 16.30 142.60 15.20L142.58 15.18L142.54 15.14Q141.29 14.87 138.78 14.72ZM151.42 36.65L151.42 36.65L151.41 36.64Q150.89 37.15 149.71 38.02L149.74 38.06L145.30 34.34L145.36 34.40Q142.87 35.60 138.60 35.64L138.59 35.63L138.49 35.53Q131.95 35.65 129.14 33.41L129.28 33.55L129.26 33.52Q127.32 31.59 126.87 28.62L126.94 28.70L127.01 28.77Q126.79 26.94 126.41 23.37L126.48 23.44L126.31 23.27Q126.47 22.71 126.36 20.95L126.34 20.94L126.24 20.84Q126.04 19.23 126.08 18.35L126.13 18.41L126.19 18.47Q126.21 15.33 127.96 13.77L128.03 13.84L127.95 13.75Q129.47 12.42 132.67 11.93L132.67 11.92L132.79 12.05Q135.30 11.70 138.19 11.78L138.06 11.64L138.08 11.66Q145.58 11.78 148.70 14.14L148.79 14.23L148.74 14.17Q150.83 16.23 150.57 21.14L150.74 21.31L150.56 21.14Q150.45 24.87 150.26 26.20L150.35 26.30L150.19 26.13Q149.66 30.75 147.34 33.07L147.35 33.08L147.36 33.09Q148.80 34.30 151.54 36.78ZM146.70 12.52L146.55 12.37L146.64 12.45Q144.53 11.64 138.02 11.15L138.15 11.28L138.18 11.31Q136.73 11.27 133.95 11.38L134.05 11.48L133.91 11.34Q129.71 11.59 127.46 13.57L127.46 13.57L127.59 13.70Q125.86 15.09 125.86 18.25L125.86 18.25L125.84 18.23Q125.80 19.03 125.96 20.74L125.94 20.73L126.07 20.86Q126.22 22.57 126.22 23.45L126.08 23.31L126.10 23.32Q126.32 25.14 126.70 28.72L126.71 28.73L126.57 28.59Q126.94 31.47 128.53 33.53L128.64 33.63L128.53 33.52Q128.99 34.47 130.21 35.62L130.06 35.47L130.14 35.55Q132.86 37.54 138.04 37.81L137.99 37.77L138.12 37.89Q138.45 37.88 140.85 38.00L140.87 38.02L140.72 37.87Q145.58 38.08 147.86 37.01L147.92 37.07L147.84 37.00Q148.86 37.83 153.59 41.41L153.44 41.26L153.54 41.37Q154.01 40.69 155.31 39.70L155.36 39.75L155.39 39.78Q154.62 39.21 153.82 38.53L153.76 38.46L152.03 36.92L152.11 36.85L152.09 36.83Q151.60 36.46 150.39 35.43L150.44 35.49L150.33 35.38Q152.20 32.83 152.20 28.30L152.25 28.35L152.26 28.36Q152.25 27.92 152.28 27.09L152.38 27.18L152.32 27.12Q152.27 26.20 152.27 25.78L152.32 25.82L152.26 25.77Q152.36 20.35 151.64 17.99L151.56 17.91L151.73 18.08Q151.19 16.63 150.32 15.56L150.29 15.54L150.28 15.53Q149.57 13.48 146.64 12.46ZM140.66 17.06L140.63 17.03L140.66 17.06Q144.61 16.86 146.44 18.46L146.59 18.62L146.56 18.59Q147.15 19.82 147.26 21.15L147.29 21.18L147.26 21.15Q147.28 22.35 147.21 23.72L147.19 23.70L147.14 23.66Q146.93 28.73 144.99 30.45L145.02 30.48L144.85 30.31Q143.73 29.20 141.22 26.46L141.14 26.37L141.17 26.40Q140.28 27.03 138.72 28.59L138.69 28.57L138.72 28.60Q139.29 29.20 140.43 30.38L140.49 30.45L140.35 30.41L140.41 30.48Q140.98 31.01 142.01 32.08L142.06 32.12L142.06 32.13Q141.01 32.34 138.69 32.64L138.69 32.65L138.17 32.65L137.78 32.68L137.80 32.75L137.75 32.69Q134.31 32.71 132.33 31.08L132.39 31.13L132.38 31.13Q131.20 28.88 131.23 25.76L131.35 25.88L131.35 25.88Q131.51 17.16 140.68 17.09Z"/><path fill="#111" d="M55.84 15.08L55.98 15.22L55.85 15.09Q51.59 15.13 47.90 14.14L47.82 14.07L47.86 14.11Q49.28 18.57 49.47 23.41L49.50 23.43L49.63 23.57Q49.73 28.27 48.51 32.88L48.63 32.99L48.62 32.98Q51.35 32.29 54.85 32.14L54.81 32.09L54.87 32.16Q58.87 32.05 60.66 29.61L60.56 29.51L60.60 29.55Q62.03 27.40 62.22 23.29L62.25 23.31L62.36 23.42Q62.42 21.66 61.96 19.95L61.81 19.79L61.95 19.93Q60.58 15.10 55.86 15.10ZM43.98 37.14L44.06 37.22L43.97 37.13Q46.84 31.44 46.84 24.74L46.82 24.72L46.83 24.73Q46.77 16.14 42.47 9.13L42.61 9.28L42.63 9.30Q47.79 11.86 56.05 12.05L56.10 12.11L55.98 11.99Q64.95 12.27 65.29 19.43L65.23 19.37L65.22 19.36Q65.50 22.22 65.46 23.67L65.27 23.48L65.35 23.56Q65.25 28.22 64.41 30.39L64.46 30.44L64.39 30.37Q63.97 31.48 63.21 32.31L63.24 32.34L63.22 32.32Q61.81 33.80 59.18 34.30L59.24 34.36L59.18 34.30Q57.78 34.76 54.77 34.99L54.78 35.00L54.69 34.91Q48.48 35.29 43.88 37.04ZM61.86 36.97L61.93 37.04L61.97 37.08Q64.66 36.69 66.30 35.21L66.35 35.26L66.26 35.17Q67.51 33.46 67.48 30.71L67.50 30.74L67.50 30.74Q67.49 29.36 67.34 25.85L67.22 25.74L66.84 21.17L67.00 21.33Q66.74 18.98 65.79 16.88L65.78 16.88L65.75 16.85Q65.32 16.00 64.64 15.35L64.61 15.32L64.56 15.12L64.61 15.17Q62.96 12.27 58.55 11.89L58.47 11.81L58.52 11.86Q55.81 11.70 48.81 10.98L48.75 10.92L48.84 11.01Q45.44 10.43 41.75 8.42L41.73 8.40L41.77 8.43Q46.62 15.84 46.62 24.59L46.71 24.68L46.63 24.60Q46.65 31.63 43.30 37.79L43.28 37.78L43.22 37.71Q43.93 37.47 45.26 36.98L45.36 37.07L45.32 37.04Q44.96 37.86 44.09 39.34L44.14 39.39L44.13 39.38Q47.05 38.20 50.40 37.70L50.45 37.75L50.46 37.76Q52.52 37.42 56.17 37.31L56.27 37.40L56.25 37.39Q60.03 37.16 61.85 36.97ZM61.95 23.39L61.89 23.34L61.93 23.37Q61.63 31.45 54.92 31.83L54.95 31.86L54.86 31.77Q53.00 31.96 50.94 32.23L50.90 32.19L50.95 32.23Q51.56 28.28 51.56 24.62L51.65 24.71L51.51 24.57Q51.56 20.93 50.84 17.08L50.86 17.11L50.74 16.99Q53.01 17.35 57.69 17.35L57.70 17.36L57.75 17.41Q59.24 17.38 60.88 18.33L60.74 18.20L60.73 18.18Q62.12 20.56 61.96 23.41Z"/><path fill="#333" d="M112.45 15.12L112.45 15.11L112.37 15.04Q108.15 15.12 104.46 14.13L104.42 14.09L104.45 14.13Q105.97 18.69 106.16 23.53L106.04 23.41L106.13 23.49Q106.33 28.30 105.12 32.91L105.06 32.85L105.20 32.99Q107.89 32.26 111.39 32.11L111.46 32.17L111.53 32.24Q115.27 31.87 117.06 29.44L117.17 29.55L117.22 29.60Q118.66 27.46 118.85 23.35L118.76 23.26L118.82 23.32Q118.97 21.64 118.51 19.93L118.57 19.98L118.52 19.93Q117.26 15.21 112.54 15.21ZM100.45 37.04L100.56 37.15L100.59 37.18Q103.38 31.41 103.38 24.71L103.35 24.67L103.42 24.74Q103.47 16.26 99.16 9.26L99.14 9.24L99.13 9.22Q104.45 11.96 112.71 12.15L112.59 12.03L112.70 12.13Q121.60 12.35 121.94 19.51L121.93 19.50L121.86 19.43Q121.88 22.04 121.84 23.48L121.89 23.53L122.01 23.65Q121.86 28.26 121.02 30.43L120.93 30.34L121.04 30.45Q120.65 31.58 119.89 32.42L119.75 32.28L119.93 32.46Q118.54 33.96 115.91 34.46L115.76 34.30L115.76 34.31Q114.24 34.65 111.23 34.87L111.33 34.98L111.37 35.01Q105.20 35.43 100.59 37.18ZM118.46 37.00L118.55 37.09L118.51 37.05Q121.31 36.77 122.95 35.29L122.83 35.17L122.77 35.11Q124.07 33.44 124.03 30.70L124.09 30.76L124.05 30.72Q124.08 29.38 123.93 25.87L123.95 25.89L123.48 21.24L123.42 21.17Q123.38 19.04 122.43 16.95L122.42 16.94L122.45 16.97Q121.79 15.90 121.11 15.25L121.26 15.40L121.20 15.19L121.23 15.22Q119.44 12.18 115.03 11.79L114.95 11.72L115.11 11.88Q112.30 11.62 105.30 10.90L105.35 10.95L105.26 10.86Q102.16 10.57 98.46 8.56L98.41 8.50L98.32 8.41Q103.11 15.76 103.11 24.51L103.16 24.56L103.21 24.61Q103.17 31.57 99.82 37.74L99.79 37.71L99.94 37.86Q100.63 37.60 101.96 37.10L101.86 37.00L101.82 36.96Q101.60 37.92 100.72 39.40L100.65 39.33L100.57 39.25Q103.75 38.33 107.11 37.83L107.06 37.79L107.09 37.81Q109.04 37.37 112.69 37.25L112.76 37.32L112.77 37.33Q116.66 37.22 118.49 37.03ZM118.50 23.38L118.52 23.40L118.53 23.40Q118.20 31.46 111.50 31.84L111.33 31.66L111.42 31.76Q109.55 31.94 107.49 32.21L107.45 32.16L107.37 32.08Q108.14 28.28 108.14 24.62L108.25 24.74L108.10 24.59Q108.03 20.82 107.30 16.98L107.43 17.11L107.44 17.12Q109.74 17.51 114.42 17.51L114.38 17.46L114.29 17.38Q115.64 17.20 117.28 18.16L117.42 18.30L117.35 18.23Q118.76 20.63 118.60 23.48Z"/><path fill="#222" d="M169.19 27.11L159.94 17.10L159.89 17.05Q160.79 20.80 160.79 24.53L160.79 24.53L160.78 24.53Q160.73 30.45 158.68 36.01L158.82 36.15L158.74 36.08Q157.80 36.46 155.55 37.22L155.38 37.05L155.38 37.06Q158.35 31.42 158.35 24.72L158.35 24.72L158.21 24.58Q158.18 15.91 153.69 8.49L153.82 8.62L153.75 8.55Q154.25 8.78 154.93 9.20L154.88 9.15L154.93 9.19Q167.06 20.45 174.90 29.70L174.89 29.68L174.91 29.70Q174.51 27.18 174.51 24.74L174.48 24.71L174.44 24.67Q174.62 17.62 177.13 11.41L177.05 11.33L177.06 11.33Q179.32 10.74 180.92 10.05L180.90 10.04L180.92 10.06Q177.64 16.26 177.34 23.42L177.36 23.44L177.40 23.48Q177.13 30.86 180.10 37.03L180.03 36.96L179.98 36.91Q179.45 36.87 179.03 36.68L179.08 36.73L178.99 36.64Q174.38 32.64 169.17 27.08L169.27 27.18ZM182.67 40.17L182.71 40.21L182.72 40.22Q183.19 40.39 183.61 40.58L183.53 40.50L184.40 40.87L184.30 40.77Q179.14 33.82 179.14 24.45L179.28 24.59L179.14 24.46Q179.25 17.34 182.57 11.10L182.60 11.13L182.56 11.09Q181.82 11.23 180.42 11.84L180.44 11.86L180.49 11.91Q180.80 11.00 181.64 9.44L181.59 9.40L181.64 9.45Q179.25 10.41 176.82 10.98L176.81 10.97L176.82 10.99Q174.06 17.32 174.06 24.74L174.14 24.82L174.20 24.89Q174.08 26.63 174.27 28.61L174.35 28.69L174.28 28.62Q169.78 23.10 165.03 18.49L164.95 18.41L154.82 8.66L154.83 8.68Q154.36 8.47 153.14 7.90L153.12 7.88L153.11 7.86Q157.98 15.60 157.98 24.69L158.01 24.73L158.03 24.74Q158.01 31.84 154.92 37.85L154.78 37.71L154.87 37.80Q155.07 37.58 156.71 36.97L156.87 37.14L156.70 36.97Q156.56 37.93 155.72 39.41L155.68 39.37L155.73 39.42Q157.02 38.85 160.48 38.05L160.35 37.91L160.45 38.01Q162.79 31.91 162.79 24.71L162.82 24.74L162.78 24.69Q162.83 22.65 162.60 20.52L162.53 20.45L162.44 20.36Q174.01 33.26 182.61 40.11Z"/><path d="M7 36 C120 6,94 37,183 31" stroke="#666" fill="none"/><path fill="#333" d="M22.64 25.70L22.52 25.58L22.67 25.73Q22.65 25.71 26.04 25.67L25.89 25.52L25.87 25.50Q28.23 25.58 29.29 25.61L29.19 25.51L29.18 25.50Q28.29 22.79 25.86 17.15L25.84 17.14L25.74 17.03Q25.25 18.53 24.21 21.38L24.18 21.36L24.13 21.31Q23.22 24.30 22.65 25.70ZM30.44 28.13L30.50 28.19L30.33 28.02Q28.06 28.00 25.85 28.03L25.83 28.01L25.89 28.08Q23.68 28.15 21.40 28.34L21.46 28.40L21.42 28.36Q19.88 31.77 16.64 35.96L16.55 35.86L16.56 35.88Q14.00 36.51 12.63 37.01L12.70 37.08L12.59 36.97Q17.90 31.51 22.59 18.15L22.44 17.99L22.55 18.11Q23.62 14.50 24.99 11.26L25.12 11.39L25.13 11.40Q25.39 11.35 25.73 11.35L25.75 11.38L26.46 11.36L26.53 11.43Q27.30 12.81 32.14 24.46L32.13 24.45L32.06 24.38Q35.35 32.24 39.35 36.39L39.26 36.30L39.29 36.33Q38.91 36.34 35.03 35.46L35.00 35.43L34.89 35.33Q32.39 32.25 30.41 28.10ZM34.96 35.81L34.85 35.71L35.34 35.70L35.53 35.88Q35.66 35.78 35.96 35.90L36.10 36.03L36.07 36.00Q36.28 36.26 38.11 38.27L38.20 38.37L38.23 38.39Q41.71 39.14 44.11 40.16L44.22 40.28L44.14 40.20Q38.67 35.68 34.67 27.68L34.64 27.65L34.72 27.73Q33.18 24.52 31.74 20.56L31.67 20.49L28.92 12.98L28.91 12.97Q28.55 12.95 28.32 12.95L28.44 13.07L27.94 13.11L27.94 13.11Q27.53 12.39 26.81 11.02L26.67 10.88L26.76 10.97Q26.25 11.00 25.80 10.96L25.75 10.91L25.77 10.93Q25.35 10.93 24.81 10.93L24.81 10.93L24.91 11.03Q23.48 14.92 19.59 25.09L19.57 25.07L19.44 24.94Q16.45 33.02 11.81 37.82L11.77 37.78L11.86 37.88Q12.69 37.26 14.71 36.65L14.81 36.75L14.87 36.81Q13.98 37.56 12.42 39.35L12.55 39.48L12.51 39.44Q14.22 38.79 18.14 38.03L18.18 38.06L18.10 37.99Q21.50 33.62 23.06 30.38L23.20 30.52L23.11 30.44Q24.80 30.25 27.12 30.29L27.28 30.45L27.24 30.41Q29.98 30.45 31.35 30.53L31.22 30.39L31.16 30.34Q32.51 32.79 34.87 35.72ZM27.08 20.96L27.23 21.11L27.17 21.06Q27.94 23.04 28.70 25.13L28.75 25.19L25.39 25.14L25.48 25.23Q26.11 23.84 27.17 21.06Z"/><path fill="#222" d="M82.09 14.72L82.08 14.71L80.41 14.72L80.53 14.84Q78.21 14.88 77.98 16.90L78.04 16.95L77.96 16.87Q77.85 17.56 77.88 18.55L77.96 18.62L77.99 18.66Q77.89 20.45 79.14 21.78L79.29 21.93L79.26 21.90Q80.57 23.29 82.47 23.14L82.47 23.14L82.35 23.01Q84.41 22.86 85.17 21.95L85.26 22.04L85.15 21.93Q86.33 21.13 86.59 18.88L86.57 18.85L86.55 18.84Q86.73 16.51 85.48 15.67L85.56 15.76L85.54 15.74Q84.74 15.01 82.08 14.71ZM88.01 23.84L88.12 23.95L86.86 26.27L86.78 26.18Q84.05 30.95 80.28 35.03L80.22 34.97L80.21 34.95Q78.72 35.25 76.01 36.05L75.96 36.00L75.94 35.98Q81.22 29.65 84.38 24.86L84.40 24.87L84.38 24.85Q83.34 25.49 81.70 25.56L81.77 25.63L81.86 25.73Q78.81 25.83 77.29 23.85L77.25 23.81L77.17 23.74Q75.99 22.18 74.89 17.61L74.97 17.69L74.97 17.69Q74.98 17.24 74.83 16.31L74.82 16.30L74.86 16.34Q74.61 15.31 74.61 14.86L74.70 14.95L74.58 14.82Q74.60 13.06 75.67 12.45L75.66 12.44L75.77 12.55Q76.90 11.70 78.77 11.70L78.86 11.79L78.85 11.79Q82.06 11.80 82.06 11.80L81.99 11.72L81.96 11.70Q84.06 11.66 85.31 11.85L85.40 11.94L85.45 11.99Q87.44 12.11 88.35 12.61L88.38 12.63L88.49 12.75Q89.88 13.53 90.07 15.28L89.99 15.20L90.03 15.24Q89.99 15.42 89.80 18.09L89.75 18.04L89.87 18.16Q89.50 20.30 89.27 21.14L89.28 21.14L89.18 21.04Q88.76 22.42 88.00 23.83ZM89.87 26.19L90.00 26.32L90.02 26.34Q91.01 24.13 91.54 19.83L91.42 19.71L91.49 19.78Q91.74 17.56 91.70 16.68L91.74 16.72L91.68 16.65Q91.76 14.91 90.58 14.00L90.50 13.92L90.14 13.75L90.24 13.85Q89.89 13.01 88.98 12.36L89.10 12.48L88.95 12.33Q86.80 11.48 82.01 11.32L81.92 11.24L81.85 11.16Q80.98 11.25 78.54 11.25L78.48 11.19L78.49 11.20Q76.81 11.27 75.33 11.96L75.32 11.95L75.25 11.88Q74.20 12.77 74.28 14.60L74.21 14.53L74.31 14.63Q74.45 15.49 74.64 17.51L74.54 17.41L74.56 17.43Q75.31 20.19 75.57 21.03L75.45 20.90L75.39 20.85Q76.09 22.85 77.05 24.14L77.08 24.17L77.03 24.13Q77.26 24.44 77.64 24.82L77.67 24.84L77.58 24.76Q77.84 25.20 78.48 26.11L78.56 26.19L78.51 26.14Q80.08 27.60 82.02 27.79L81.98 27.74L82.02 27.79Q80.00 30.34 78.44 32.24L78.62 32.41L74.89 36.68L75.02 36.81Q77.17 35.96 78.81 35.61L78.88 35.69L78.83 35.63Q78.03 36.47 76.47 38.18L76.47 38.19L76.45 38.17Q79.60 37.31 82.72 37.28L82.62 37.18L82.75 37.31Q85.10 34.75 89.44 27.52L89.34 27.42L89.44 27.59L89.30 27.46Q89.63 26.79 89.97 26.30ZM84.04 17.13L84.00 17.09L83.86 16.95Q84.55 16.92 85.01 17.03L85.05 17.07L84.98 17.00Q85.63 17.11 86.01 17.23L86.11 17.33L86.13 17.35Q86.15 17.64 86.23 18.06L86.24 18.07L86.29 18.12Q86.34 18.52 86.23 18.90L86.23 18.89L86.19 18.86Q86.10 20.52 84.92 21.62L84.92 21.62L85.04 21.74Q83.98 22.67 82.35 22.63L82.42 22.70L82.35 22.64Q81.91 22.61 80.39 22.31L80.47 22.39L80.48 22.39Q80.23 21.50 80.23 20.78L80.25 20.80L80.22 20.77Q80.17 20.53 80.17 20.30L80.11 20.24L80.06 20.19Q80.15 18.07 82.43 17.27L82.42 17.26L82.43 17.27Q83.06 16.99 83.90 16.99Z"/></svg>