<svg xmlns="http://www.w3.org/2000/svg" width="200" height="40" viewBox="0,0,200,40"><path d="M7 7 C109 32,107 24,190 9" stroke="#444" fill="none"/><path d="M20 23 C80 38,90 12,197 17" stroke="#666" fill="none"/><path fill="#222" d="M83.49 35.04L83.46 35.01L81.39 35.22L81.53 35.37Q80.95 35.24 79.98 35.30L79.95 35.27L79.96 35.28Q78.98 35.33 78.49 35.33L78.56 35.41L78.54 35.38Q76.96 35.44 75.93 34.60L75.94 34.61L75.88 34.55Q76.80 33.56 78.44 31.43L78.26 31.26L78.31 31.31Q79.63 32.94 81.84 32.71L81.87 32.74L81.84 32.71Q82.75 32.59 83.40 31.94L83.34 31.89L83.33 31.87Q84.00 31.24 83.88 30.37L83.92 30.41L83.92 30.41Q83.75 25.75 83.83 21.18L83.96 21.31L83.96 21.31Q83.85 16.56 84.38 11.95L84.40 11.97L84.40 11.97Q86.45 11.88 88.58 10.85L88.43 10.71L88.46 10.73Q86.65 17.53 86.65 24.76L86.66 24.77L86.66 24.77Q86.69 28.34 87.15 31.84L87.03 31.73L87.15 31.85Q87.21 32.17 87.21 32.52L87.16 32.47L87.23 32.54Q87.22 33.10 86.99 33.63L86.98 33.62L87.01 33.65Q86.48 34.95 83.66 35.21ZM88.42 37.88L88.48 37.94L88.94 38.05L89.14 37.84L89.29 37.61L89.47 37.78Q89.79 37.53 89.86 37.42L89.80 37.35L89.81 37.36Q89.87 36.05 89.60 35.06L89.65 35.11L89.61 35.07Q88.41 29.41 88.67 23.05L88.71 23.09L88.65 23.03Q88.81 16.84 90.60 10.94L90.61 10.95L90.61 10.94Q89.84 11.69 88.58 12.42L88.49 12.32L88.48 12.32Q88.65 11.53 89.07 10.01L89.13 10.07L89.14 10.09Q86.61 11.39 83.94 11.70L83.92 11.68L83.91 11.67Q83.51 16.03 83.43 20.97L83.48 21.02L83.43 20.98Q83.49 27.01 83.57 30.44L83.45 30.32L83.60 30.47Q83.48 32.06 81.73 32.21L81.84 32.33L81.80 32.28Q80.10 32.41 78.43 30.78L78.46 30.81L78.47 30.82Q76.34 33.26 75.39 34.82L75.40 34.83L75.39 34.82Q76.01 35.44 77.04 35.67L77.07 35.70L77.11 35.74Q77.05 35.91 76.78 36.14L76.73 36.09L76.75 36.10Q78.17 37.03 80.15 37.29L80.20 37.34L80.13 37.28Q80.50 37.31 83.80 37.61L83.87 37.69L83.84 37.66Q87.18 38.01 88.55 38.01Z"/><path fill="#111" d="M164.03 14.34L164.06 14.37L164.05 14.35Q164.86 18.56 165.02 22.14L165.07 22.19L165.09 22.21Q166.06 22.15 167.12 22.15L167.17 22.20L169.42 22.24L169.41 22.22Q170.36 22.11 171.23 20.70L171.36 20.82L171.30 20.76Q172.08 19.65 172.20 18.47L172.12 18.39L172.26 18.53Q172.53 15.41 168.30 14.91L168.32 14.93L168.25 14.87Q166.74 14.99 164.11 14.42ZM165.05 24.91L165.15 25.01L165.04 24.90Q165.05 31.20 163.91 35.61L163.89 35.59L163.87 35.57Q162.50 36.06 160.17 37.13L160.04 37.00L160.11 37.07Q162.42 30.35 162.15 23.08L162.23 23.16L162.21 23.14Q161.80 15.64 159.02 9.21L159.20 9.39L159.20 9.39Q163.28 12.10 169.53 12.10L169.58 12.16L169.57 12.15Q175.50 12.03 175.65 15.49L175.64 15.47L175.67 15.51Q175.87 18.07 174.88 20.73L174.84 20.69L174.70 20.55Q174.31 21.68 173.36 22.90L173.52 23.07L173.34 22.88Q172.13 24.60 169.58 24.87L169.50 24.80L169.56 24.86Q167.34 24.91 165.09 24.95ZM171.24 27.21L171.16 27.14L171.28 27.26Q175.28 27.33 176.53 22.53L176.68 22.68L176.72 22.72Q177.66 19.06 177.51 17.04L177.39 16.92L177.45 16.99Q177.41 15.53 176.65 14.54L176.56 14.46L176.60 14.49Q176.13 14.02 175.63 13.79L175.68 13.84L175.80 13.96Q175.79 13.80 175.18 13.03L175.04 12.89L175.01 12.87Q173.63 11.71 169.67 11.71L169.54 11.59L169.62 11.67Q162.74 11.68 158.52 8.52L158.49 8.49L158.39 8.39Q161.59 15.51 161.86 22.98L161.87 22.99L161.84 22.96Q162.12 30.63 159.46 37.71L159.50 37.75L159.61 37.86Q160.62 37.16 161.61 36.78L161.67 36.83L161.15 37.84L161.14 37.83Q161.05 38.50 160.78 39.07L160.71 39.00L160.79 39.08Q163.21 38.03 166.10 37.50L165.99 37.39L166.01 37.41Q166.90 31.93 166.97 27.21L166.96 27.20L167.00 27.24Q168.19 27.25 169.18 27.25L169.14 27.21L169.17 27.24Q170.35 27.09 171.15 27.12ZM170.29 17.28L170.24 17.23L170.27 17.26Q170.69 17.19 171.68 17.42L171.67 17.40L171.69 17.42Q171.77 17.62 171.81 17.93L171.87 17.99L171.99 18.11Q171.91 18.26 171.84 18.52L171.80 18.48L171.92 18.61Q171.77 19.79 171.05 20.67L171.11 20.73L170.98 20.60Q170.54 21.80 169.52 21.99L169.53 22.00L169.35 21.83Q168.77 21.96 167.13 21.96L167.11 21.94L167.12 21.95Q167.01 19.60 166.78 17.24L166.76 17.21L168.58 17.36L168.43 17.21Q169.38 17.32 170.25 17.24Z"/><path fill="#111" d="M119.14 18.32L119.03 18.22L119.03 18.22Q117.42 14.25 111.22 14.44L111.15 14.37L111.11 14.34Q106.81 14.56 104.83 16.01L104.81 15.99L104.71 15.89Q102.49 17.81 102.49 21.92L102.36 21.80L102.46 23.76L102.40 23.70Q102.44 32.57 111.46 32.57L111.39 32.51L111.51 32.62Q113.49 32.55 114.98 31.75L114.93 31.71L115.04 31.82Q116.76 30.68 116.61 28.82L116.57 28.77L116.61 28.82Q116.52 26.82 112.82 25.90L112.81 25.89L110.70 25.72L110.72 25.75Q109.84 25.82 108.89 25.85L108.88 25.84L108.85 25.81Q108.85 24.87 108.81 22.96L108.91 23.06L108.82 22.97Q116.59 23.09 120.78 22.75L120.63 22.60L120.71 22.68Q120.73 23.57 120.73 24.37L120.58 24.22L120.65 24.29Q120.68 25.12 120.72 25.92L120.73 25.93L120.75 25.95Q119.54 25.84 119.54 25.84L119.68 25.98L119.54 25.85Q118.14 25.81 118.52 25.81L118.49 25.79L118.51 25.81Q119.62 27.45 120.00 29.43L119.95 29.38L120.08 29.50Q120.07 30.11 120.07 30.56L120.09 30.59L120.09 30.58Q120.13 35.27 111.34 35.27L111.37 35.30L111.39 35.32Q104.19 35.24 101.60 33.14L101.58 33.12L101.61 33.16Q99.73 30.89 99.73 25.83L99.76 25.86L99.63 25.73Q99.68 24.72 99.53 22.01L99.56 22.05L99.49 21.97Q99.33 19.61 99.37 18.24L99.33 18.20L99.37 18.24Q99.46 15.35 100.83 13.75L100.94 13.87L100.92 13.85Q103.42 11.74 108.29 11.55L108.36 11.62L110.95 11.47L110.92 11.44Q114.14 11.46 117.56 11.88L117.60 11.91L117.43 11.74Q121.35 12.39 122.31 15.63L122.22 15.54L122.22 15.55Q121.19 16.46 119.10 18.29ZM120.42 20.40L120.58 20.46L120.67 20.54Q121.84 19.43 123.70 17.45L123.63 17.38L123.64 17.38Q123.40 16.49 122.41 14.78L122.29 14.67L122.30 14.67Q121.28 12.17 117.48 11.52L117.41 11.45L117.45 11.50Q115.38 11.44 111.07 11.14L111.08 11.14L108.27 11.15L108.25 11.13Q103.09 11.34 100.50 13.32L100.47 13.28L100.62 13.43Q99.06 14.88 98.95 17.97L99.10 18.12L99.08 18.10Q99.00 17.56 99.23 23.04L99.29 23.10L99.28 23.09Q99.35 24.50 99.42 27.24L99.35 27.16L99.28 27.10Q99.51 31.58 101.26 33.53L101.39 33.66L101.40 33.67Q101.77 34.50 102.65 35.37L102.57 35.30L102.60 35.33Q105.40 37.10 110.92 37.44L110.90 37.42L113.91 37.73L113.83 37.65Q115.43 37.76 117.45 37.65L117.56 37.76L117.59 37.79Q118.92 37.60 121.01 37.06L120.95 37.00L121.00 37.05Q122.94 36.55 122.90 34.23L122.94 34.27L122.85 34.18Q122.85 32.92 121.78 30.14L121.93 30.29L121.82 30.18Q121.50 29.26 120.97 28.46L120.97 28.46L121.01 28.49Q121.56 28.47 122.74 28.66L122.90 28.82L122.75 28.68Q122.46 25.08 122.50 24.39L122.50 24.39L122.59 24.48Q122.13 24.40 121.71 24.36L121.70 24.35L121.77 24.42Q121.36 24.36 120.98 24.43L121.10 24.55L121.05 24.50Q121.00 23.34 121.07 22.28L121.14 22.35L121.12 22.33Q114.74 22.72 108.46 22.61L108.48 22.63L108.55 22.70Q108.49 23.51 108.49 24.42L108.53 24.47L108.54 26.23L108.54 26.23Q109.00 26.31 109.42 26.27L109.44 26.29L109.49 26.34Q109.73 26.16 110.19 26.16L110.15 26.12L110.26 26.23Q110.25 26.68 110.29 27.18L110.30 27.19L110.17 27.06Q110.17 27.52 110.14 28.01L110.27 28.15L110.19 28.07Q111.39 28.20 112.42 28.16L112.39 28.14L112.35 28.09Q113.32 28.04 114.35 28.08L114.31 28.04L114.35 28.08Q115.45 28.38 116.33 28.76L116.20 28.63L116.31 28.78L116.21 28.68Q116.56 30.40 114.88 31.31L114.74 31.17L114.88 31.31Q113.13 32.15 111.41 32.15L111.48 32.21L111.37 32.10Q107.57 32.14 105.13 30.39L105.10 30.36L105.13 30.39Q104.22 28.42 104.37 25.87L104.33 25.83L104.30 25.80Q104.59 20.98 106.44 18.98L106.54 19.09L106.43 18.98Q108.32 17.02 113.00 16.72L113.09 16.80L113.03 16.75Q116.69 16.52 118.63 18.31L118.64 18.32L118.67 18.35Q118.63 18.35 118.74 18.54L118.86 18.66L118.99 18.67L119.00 18.68Q119.62 19.42 120.20 20.52L120.07 20.40L120.47 20.45Z"/><path fill="#444" d="M26.90 35.02L26.97 35.09L24.96 35.37L24.97 35.38Q24.47 35.33 23.50 35.39L23.53 35.42L23.46 35.35Q22.59 35.51 22.09 35.51L21.93 35.35L22.01 35.42Q20.31 35.36 19.28 34.52L19.30 34.54L19.43 34.67Q20.23 33.56 21.86 31.43L21.71 31.28L21.71 31.28Q23.12 32.99 25.33 32.77L25.29 32.73L25.32 32.76Q26.09 32.50 26.74 31.85L26.84 31.95L26.89 32.01Q27.50 31.32 27.39 30.45L27.34 30.40L27.39 30.45Q27.19 25.76 27.27 21.19L27.27 21.19L27.38 21.30Q27.28 16.56 27.82 11.95L27.93 12.07L27.96 12.10Q29.85 11.86 31.98 10.83L31.88 10.72L31.91 10.76Q30.15 17.60 30.15 24.83L30.00 24.68L30.06 24.74Q30.08 28.30 30.54 31.81L30.58 31.85L30.48 31.75Q30.64 32.18 30.64 32.52L30.54 32.42L30.58 32.45Q30.54 32.99 30.32 33.53L30.33 33.55L30.48 33.69Q29.78 34.82 26.97 35.09ZM31.90 37.93L32.02 38.05L32.33 38.02L32.46 37.73L32.82 37.71L32.75 37.63Q33.15 37.46 33.23 37.35L33.19 37.32L33.16 37.29Q33.34 36.10 33.08 35.11L33.08 35.11L33.16 35.19Q31.77 29.35 32.04 22.99L32.02 22.98L32.07 23.02Q32.37 16.96 34.16 11.06L34.17 11.08L34.00 10.91Q33.21 11.64 31.96 12.36L32.02 12.43L31.94 12.34Q32.06 11.52 32.48 9.99L32.60 10.11L32.64 10.16Q29.97 11.33 27.30 11.63L27.33 11.66L27.30 11.63Q27.04 16.13 26.97 21.08L27.03 21.14L26.90 21.01Q26.86 26.95 26.94 30.38L26.87 30.31L26.96 30.40Q27.07 32.23 25.32 32.38L25.19 32.25L25.19 32.25Q23.50 32.38 21.82 30.74L21.86 30.78L21.85 30.77Q19.86 33.35 18.91 34.91L18.79 34.80L18.82 34.82Q19.45 35.45 20.48 35.68L20.59 35.79L20.61 35.81Q20.40 35.84 20.14 36.06L20.12 36.05L20.13 36.05Q21.66 37.09 23.64 37.35L23.66 37.38L23.57 37.28Q23.89 37.26 27.18 37.57L27.24 37.63L27.22 37.61Q30.57 37.97 31.94 37.97Z"/><path fill="#222" d="M135.75 14.34L135.81 14.40L135.81 14.41Q136.63 18.61 136.79 22.19L136.73 22.13L136.72 22.13Q137.87 22.24 138.93 22.24L138.97 22.28L141.07 22.18L141.20 22.31Q142.18 22.21 143.05 20.81L142.98 20.74L143.08 20.83Q143.81 19.66 143.92 18.48L143.82 18.37L143.94 18.49Q144.32 15.49 140.10 15.00L140.01 14.90L140.06 14.95Q138.42 14.96 135.80 14.39ZM136.71 24.86L136.72 24.86L136.83 24.98Q136.64 31.07 135.50 35.49L135.63 35.61L135.68 35.66Q134.16 36.01 131.84 37.08L131.82 37.06L131.84 37.08Q134.17 30.39 133.90 23.12L133.83 23.04L133.85 23.06Q133.62 15.75 130.84 9.31L130.92 9.40L130.82 9.30Q135.06 12.16 141.30 12.16L141.13 11.99L141.27 12.14Q147.25 12.06 147.41 15.53L147.36 15.48L147.46 15.58Q147.44 17.92 146.45 20.58L146.44 20.58L146.60 20.74Q146.12 21.77 145.16 22.99L145.10 22.92L145.18 23.01Q143.89 24.65 141.34 24.91L141.25 24.83L141.27 24.85Q138.98 24.84 136.73 24.88ZM142.92 27.18L143.03 27.29L142.83 27.10Q147.00 27.34 148.25 22.54L148.42 22.71L148.41 22.70Q149.28 18.97 149.13 16.95L149.21 17.03L149.07 16.89Q149.05 15.46 148.29 14.47L148.36 14.54L148.17 14.35Q148.00 14.18 147.50 13.95L147.49 13.93L147.43 13.88Q147.40 13.69 146.79 12.93L146.85 13.00L146.79 12.93Q145.19 11.56 141.24 11.56L141.26 11.59L141.34 11.66Q134.43 11.65 130.21 8.49L130.22 8.50L130.16 8.45Q133.36 15.57 133.63 23.03L133.69 23.09L133.70 23.10Q133.94 30.73 131.27 37.81L131.31 37.85L131.33 37.86Q132.34 37.16 133.33 36.78L133.32 36.77L132.84 37.81L132.83 37.80Q132.68 38.42 132.42 38.99L132.41 38.98L132.54 39.11Q134.94 38.05 137.83 37.52L137.82 37.50L137.77 37.45Q138.67 32.00 138.75 27.28L138.61 27.14L138.71 27.23Q139.74 27.08 140.73 27.08L140.79 27.15L140.88 27.24Q142.21 27.23 143.01 27.27ZM141.98 17.26L142.05 17.33L142.00 17.28Q142.46 17.24 143.45 17.47L143.45 17.47L143.45 17.47Q143.48 17.62 143.52 17.92L143.67 18.07L143.61 18.02Q143.72 18.35 143.65 18.62L143.58 18.55L143.54 18.52Q143.53 19.83 142.80 20.71L142.83 20.73L142.73 20.64Q142.22 21.76 141.19 21.95L141.20 21.96L141.11 21.87Q140.39 21.88 138.76 21.88L138.72 21.84L138.76 21.88Q138.64 19.51 138.41 17.15L138.50 17.25L140.13 17.20L140.24 17.31Q141.09 17.32 141.97 17.25Z"/><path fill="#222" d="M54.54 25.39L54.62 25.47L54.62 25.48Q51.14 31.82 47.72 35.78L47.62 35.68L47.71 35.77Q45.87 36.21 43.43 37.09L43.44 37.10L43.27 36.92Q48.18 31.33 52.94 22.92L53.05 23.03L53.01 22.99Q48.42 16.03 42.44 9.64L42.35 9.55L42.40 9.60Q45.32 10.80 47.60 11.29L47.66 11.35L47.62 11.32Q52.37 16.64 54.81 20.60L54.74 20.53L54.79 20.58Q57.21 16.07 61.13 11.65L61.26 11.79L61.21 11.73Q62.84 11.46 66.04 10.70L66.07 10.73L65.98 10.64Q59.87 17.05 56.40 22.99L56.52 23.10L56.49 23.08Q61.61 31.70 65.99 36.27L65.92 36.20L65.93 36.21Q63.39 35.46 61.30 35.24L61.37 35.31L61.29 35.23Q58.55 32.29 54.63 25.48ZM61.27 35.62L61.18 35.54L61.18 35.54Q61.61 35.70 62.07 35.81L62.05 35.80L61.91 35.65Q62.85 36.56 64.38 38.16L64.39 38.17L64.39 38.17Q67.60 38.84 70.65 40.21L70.63 40.19L70.66 40.21Q63.57 33.66 58.47 24.91L58.43 24.87L58.38 24.81Q62.11 18.16 68.01 11.30L68.07 11.36L68.20 11.49Q66.63 12.02 64.46 12.55L64.51 12.59L64.42 12.51Q65.29 11.59 67.05 9.80L67.21 9.97L67.10 9.86Q64.76 10.79 61.06 11.36L60.93 11.23L61.06 11.35Q57.52 15.05 54.93 19.35L54.92 19.34L54.94 19.36Q54.17 17.90 52.99 16.42L52.95 16.38L50.72 13.51L50.26 13.42L50.32 13.48Q50.20 13.51 49.97 13.43L49.88 13.35L49.83 13.30Q49.29 12.60 47.80 11.04L47.63 10.86L47.75 10.99Q43.93 10.10 41.34 8.73L41.35 8.74L41.32 8.70Q47.98 15.90 52.55 22.94L52.59 22.99L52.53 22.93Q48.12 31.20 42.37 37.78L42.27 37.68L42.40 37.80Q43.79 37.21 45.92 36.64L45.80 36.53L44.47 37.93L44.51 37.97Q44.60 38.07 43.27 39.40L43.20 39.33L43.26 39.39Q46.16 38.22 49.32 37.72L49.31 37.72L49.33 37.73Q53.42 33.30 56.01 28.54L55.97 28.50L56.03 28.56Q58.58 32.78 61.28 35.63Z"/></svg>